<?xml version="1.0" standalone="no"?>
<!DOCTYPE svg PUBLIC "-//W3C//DTD SVG 20010904//EN"
 "http://www.w3.org/TR/2001/REC-SVG-20010904/DTD/svg10.dtd">
<svg version="1.0" xmlns="http://www.w3.org/2000/svg"
 width="460.000000pt" height="460.000000pt" viewBox="0 0 460.000000 460.000000"
 preserveAspectRatio="xMidYMid meet">
<metadata>
Created by potrace 1.14, written by Peter Selinger 2001-2017
</metadata>
<g transform="translate(0.000000,460.000000) scale(0.100000,-0.100000)"
fill="#000000" stroke="none">
<path d="M3310 3579 c0 -5 5 -7 10 -4 6 3 10 8 10 11 0 2 -4 4 -10 4 -5 0 -10
-5 -10 -11z"/>
<path d="M1890 3501 c0 -12 6 -21 15 -21 8 0 15 3 15 6 0 3 -7 12 -15 20 -13
14 -15 13 -15 -5z"/>
<path d="M1656 3501 c-4 -7 -5 -15 -2 -18 9 -9 19 4 14 18 -4 11 -6 11 -12 0z"/>
<path d="M1830 3462 c6 -13 14 -21 18 -18 3 4 -2 14 -12 24 -18 16 -18 16 -6
-6z"/>
<path d="M2007 3465 c-4 -8 -3 -16 1 -19 4 -3 9 4 9 15 2 23 -3 25 -10 4z"/>
<path d="M1770 3463 c1 -13 24 -38 37 -40 10 -2 10 3 1 22 -10 23 -38 36 -38
18z"/>
<path d="M2106 3454 c-9 -22 3 -32 14 -14 12 19 12 30 1 30 -5 0 -12 -7 -15
-16z"/>
<path d="M1865 3431 c-3 -6 -3 -21 0 -34 4 -13 8 -30 9 -38 7 -34 19 -51 27
-38 6 10 12 9 27 -5 20 -17 38 -61 22 -51 -5 3 -11 1 -15 -5 -10 -17 -25 -11
-25 9 0 11 -5 23 -10 26 -7 4 -9 -2 -5 -18 6 -21 3 -24 -24 -25 -42 -1 -56 25
-40 78 7 22 16 40 20 40 4 0 5 8 2 18 -2 11 -14 18 -28 18 -18 0 -22 -4 -16
-15 14 -28 8 -86 -8 -83 -12 3 -12 0 -1 -12 10 -14 10 -16 -6 -16 -16 0 -16
-2 -4 -10 17 -11 15 -14 -27 -28 -31 -10 -46 -1 -23 13 6 3 10 16 10 28 0 25
-16 12 -22 -17 -4 -26 -27 -32 -34 -9 -3 10 -11 28 -16 40 -6 12 -8 31 -5 42
3 12 1 18 -4 15 -5 -3 -14 5 -19 18 -8 19 -9 15 -4 -17 3 -22 10 -44 15 -49 5
-6 9 -19 9 -30 -1 -21 -1 -21 -13 0 -14 25 -77 80 -77 67 0 -4 9 -14 20 -21
11 -7 20 -19 20 -27 0 -8 6 -18 13 -22 18 -11 47 -55 47 -71 0 -13 -24 -13
-107 -2 -1 0 -8 7 -16 14 -13 13 -14 12 -14 -11 0 -14 3 -20 7 -14 11 19 38 1
45 -31 9 -38 2 -43 -29 -23 -14 9 -33 15 -43 12 -15 -3 -14 -6 7 -16 45 -22
75 -41 64 -41 -6 0 -16 -12 -23 -27 l-13 -28 -13 33 c-8 17 -17 32 -20 32 -3
0 -1 -9 5 -19 12 -24 13 -71 0 -91 -7 -11 -14 -4 -30 33 -22 49 -37 65 -20 22
6 -16 6 -25 -1 -25 -5 0 2 -12 16 -27 30 -33 29 -27 10 -89 -8 -27 -15 -61
-15 -76 0 -36 -14 -43 -33 -15 -9 12 -34 42 -57 67 l-42 44 21 41 c11 22 29
56 40 75 28 52 41 99 29 106 -5 3 -8 14 -5 24 3 13 0 17 -9 13 -11 -4 -11 -10
-2 -26 8 -16 8 -22 -1 -25 -6 -2 -9 -8 -6 -13 8 -12 -13 -85 -29 -102 -7 -7
-21 -29 -31 -47 -13 -24 -20 -30 -23 -20 -3 8 -11 18 -18 23 -16 9 -47 103
-39 118 5 6 0 6 -12 -2 -18 -11 -19 -15 -6 -52 8 -22 20 -49 28 -61 17 -23 20
-60 5 -51 -5 3 -10 1 -10 -4 0 -6 10 -11 22 -11 22 0 98 -74 98 -96 0 -6 7
-14 14 -17 19 -8 42 -52 50 -99 8 -41 1 -48 -21 -20 -13 15 -13 15 -4 -4 6
-12 7 -25 3 -29 -4 -5 -2 -5 5 -2 7 5 9 0 6 -14 -5 -16 -12 -19 -37 -16 -79
12 -136 30 -136 42 0 7 -7 16 -16 19 -23 9 -28 1 -9 -14 25 -20 18 -25 -38
-25 -39 0 -58 5 -72 19 -18 18 -18 19 0 32 10 8 14 14 9 14 -6 0 -15 -5 -22
-12 -9 -9 -17 -7 -35 10 -13 13 -32 24 -43 26 -10 3 -46 18 -79 35 -33 17 -68
31 -77 31 -10 0 -18 4 -18 9 0 21 23 71 33 71 6 0 8 3 4 6 -3 4 3 24 14 46 11
22 15 37 8 32 -9 -5 -11 2 -6 28 3 19 1 41 -4 49 -7 11 -9 8 -9 -9 0 -15 -4
-21 -12 -16 -8 5 -9 2 -4 -12 5 -10 10 -26 13 -35 6 -22 -39 -120 -53 -115 -7
3 -9 -5 -6 -20 8 -42 -3 -55 -38 -43 -16 6 -32 15 -35 19 -7 11 14 7 45 -9
l25 -12 -25 20 c-14 11 -33 21 -42 21 -14 0 -18 11 -20 58 -2 37 -7 56 -15 55
-6 -2 -14 6 -18 16 -3 11 -13 22 -22 26 -14 5 -14 3 2 -15 18 -19 18 -20 -3
-39 -12 -10 -18 -21 -15 -25 4 -4 0 -4 -10 0 -10 3 -17 1 -17 -5 0 -6 9 -11
20 -11 14 0 20 -7 20 -21 0 -19 -4 -21 -37 -16 -21 4 -39 11 -41 17 -2 5 -11
10 -20 10 -13 0 -13 -2 3 -13 19 -15 13 -37 -9 -37 -8 0 -20 -8 -27 -17 -11
-13 -5 -12 24 5 52 30 103 30 111 0 11 -44 7 -78 -11 -84 -10 -3 -31 -12 -48
-20 -29 -14 -29 -14 -3 -9 14 3 33 8 42 11 19 7 33 -23 18 -38 -14 -14 -131
-11 -149 3 -9 9 -13 8 -13 0 0 -6 -12 -11 -27 -10 -25 0 -26 1 -8 9 18 8 17 9
-8 9 -15 1 -30 8 -33 16 -4 8 -11 15 -16 15 -6 0 -5 -6 2 -15 17 -20 -8 -29
-55 -21 -22 4 -35 3 -35 -4 0 -5 -5 -10 -11 -10 -5 0 -7 5 -4 10 3 6 0 10 -8
10 -11 0 -13 -7 -9 -22 5 -22 5 -22 -12 -5 -21 21 -24 21 -42 2 -18 -18 -4
-20 15 -2 11 10 11 8 2 -10 -16 -31 -14 -35 10 -23 19 11 20 10 9 -12 -10 -19
-10 -21 1 -10 7 6 21 12 32 12 10 0 16 4 12 9 -8 14 28 31 62 30 25 0 26 -1 8
-9 -13 -6 -7 -7 20 -2 34 6 255 6 261 -1 8 -10 11 -183 3 -198 -6 -13 -6 -19
1 -19 5 0 10 -21 10 -47 0 -51 -15 -86 -27 -67 -7 9 -64 27 -128 40 -11 2 -33
7 -50 10 -39 8 -27 -4 22 -22 36 -14 34 -14 -57 -10 -70 4 -87 2 -65 -5 17 -5
76 -12 132 -16 57 -3 103 -10 103 -15 0 -4 -6 -8 -12 -8 -7 -1 -3 -6 10 -14
29 -16 62 -65 55 -82 -7 -19 -23 -17 -47 5 -12 10 -61 29 -111 41 -49 12 -111
31 -136 41 -45 17 -142 79 -135 86 1 2 19 -4 39 -12 20 -8 44 -15 54 -14 12 0
10 3 -7 9 -70 22 -136 54 -162 78 -29 27 -29 30 -12 97 4 16 3 17 -5 5 -18
-26 -25 16 -8 50 9 16 12 32 7 35 -13 8 -31 -21 -24 -39 3 -9 1 -16 -5 -16
-17 0 -13 36 5 55 12 11 25 14 43 10 24 -6 24 -5 8 7 -18 13 -16 15 21 32 23
10 39 24 38 33 -1 10 13 21 34 28 22 7 29 14 20 17 -8 3 -24 -1 -35 -8 -22
-14 -41 -14 -65 1 -12 7 -13 6 -3 -6 10 -12 8 -20 -12 -42 -14 -14 -25 -30
-25 -35 0 -6 -7 -12 -15 -16 -10 -4 -15 1 -15 14 0 11 6 20 13 20 8 0 8 3 -2
9 -8 5 -11 16 -8 24 8 21 -12 89 -24 82 -5 -4 -9 -11 -9 -16 0 -6 4 -8 9 -5 4
3 9 -22 10 -54 2 -60 -4 -71 -27 -48 -9 9 -12 9 -12 0 0 -7 3 -12 8 -12 27 -1
32 -18 15 -56 -9 -21 -16 -42 -15 -45 0 -3 -15 -5 -33 -4 -22 1 -35 -3 -35
-11 0 -7 8 -10 18 -8 17 5 62 -29 62 -46 0 -16 -22 -11 -37 8 -10 13 -13 13
-11 2 2 -8 -1 -16 -5 -18 -15 -5 -68 30 -77 51 -8 21 -9 21 -9 -4 -1 -20 7
-29 37 -43 20 -10 48 -25 61 -33 l24 -16 -29 -12 c-25 -11 -34 -10 -62 6 -33
19 -39 16 -22 -11 6 -9 5 -17 -3 -22 -8 -5 -4 -8 10 -8 25 0 95 -93 87 -115
-8 -19 56 -25 91 -9 49 24 148 10 215 -31 30 -18 66 -36 80 -40 14 -4 43 -18
65 -31 71 -42 69 -39 49 -63 -23 -27 -82 -53 -98 -44 -6 3 -8 2 -3 -2 8 -9
-148 -115 -169 -115 -7 0 -16 -4 -19 -10 -8 -13 33 2 91 35 54 30 58 31 44 6
-5 -11 -10 -23 -10 -28 1 -4 9 8 20 27 12 24 36 45 72 64 29 16 65 40 81 54
26 24 29 25 65 13 20 -8 46 -23 56 -33 20 -21 23 -62 40 -540 l5 -148 -70 0
-70 0 6 -139 7 -138 -26 -5 c-21 -4 -26 -1 -29 21 l-4 26 -2 -27 c-2 -39 -38
-39 -44 -1 l-4 28 -2 -27 c-1 -20 -5 -25 -20 -21 -12 3 -17 11 -14 23 3 10 0
21 -6 24 -7 5 -11 -3 -11 -18 0 -23 -4 -26 -32 -26 -18 0 -63 -3 -100 -7 -58
-5 -68 -4 -68 10 0 9 -4 18 -9 21 -9 6 -252 56 -271 56 -7 0 -10 -194 -10
-580 l0 -580 2300 0 2300 0 0 518 c0 342 -4 512 -10 502 -6 -8 -7 -34 -4 -57
5 -35 3 -43 -10 -43 -9 0 -16 -5 -16 -10 0 -6 -12 -3 -27 7 -16 9 -29 18 -30
18 -6 3 31 840 43 988 6 62 8 67 30 67 13 0 24 5 24 11 0 7 -10 9 -25 5 -33
-8 -33 13 0 44 29 28 34 52 5 25 -19 -17 -20 -17 -30 9 -5 15 -11 57 -11 94
-1 37 -4 58 -6 47 -3 -11 -10 -23 -17 -27 -8 -6 -7 -8 2 -8 8 0 12 -17 12 -52
0 -80 -10 -87 -59 -43 -23 21 -45 35 -49 31 -4 -4 0 -11 9 -16 33 -19 89 -77
89 -93 0 -15 -12 -17 -79 -17 -82 0 -99 -6 -76 -27 8 -7 15 -8 17 -3 2 5 33
12 71 15 67 6 67 6 67 -20 0 -14 -6 -25 -12 -25 -8 0 -9 -3 -3 -8 18 -13 18 4
-15 -647 -17 -332 -19 -353 -40 -358 -16 -4 -17 2 -12 79 l5 84 -27 0 c-14 0
-26 6 -26 13 0 8 -2 9 -8 1 -4 -7 -29 -13 -55 -15 l-49 -4 5 32 c4 20 2 33 -5
33 -14 0 -2 200 12 214 13 13 13 29 0 21 -6 -4 -11 14 -12 47 l-1 53 -4 -45
c-3 -24 -10 -48 -16 -52 -9 -6 -9 -8 -1 -8 17 0 6 -211 -12 -226 -7 -6 -14
-31 -16 -57 -2 -26 -7 -47 -12 -47 -5 0 -6 -3 -3 -7 15 -15 -18 -33 -61 -33
l-45 0 6 157 c4 87 7 220 7 296 l0 137 53 2 52 2 -49 3 c-41 4 -47 7 -43 22 6
23 -12 53 -20 33 -4 -10 -8 -10 -21 0 -14 11 -14 9 1 -8 27 -32 21 -43 -30
-47 l-48 -3 48 -2 47 -2 0 -87 c-1 -160 -19 -489 -29 -514 -5 -13 -10 -18 -10
-11 -1 6 -12 12 -25 12 -18 0 -25 6 -28 22 -2 13 -11 24 -21 26 -17 3 -18 -5
-16 -92 1 -53 0 -98 -3 -101 -3 -3 -18 -8 -34 -11 -16 -2 -35 -7 -42 -9 -10
-4 -12 7 -11 41 2 25 6 47 11 50 12 8 10 64 -3 64 -8 0 -10 29 -5 98 3 53 6
154 6 225 0 114 2 127 18 127 10 0 13 3 6 8 -6 4 -16 16 -22 27 -9 16 -11 -8
-12 -110 0 -71 -5 -204 -11 -295 -10 -154 -18 -188 -41 -174 -4 3 -8 -17 -8
-45 0 -27 -3 -52 -7 -54 -5 -3 -8 63 -8 146 0 84 -3 175 -6 202 -5 39 -6 28
-7 -47 -2 -112 -17 -180 -44 -197 -16 -10 -18 -7 -19 31 l-2 43 -6 -40 c-5
-31 -10 -39 -23 -37 -12 2 -18 -4 -18 -17 0 -11 -6 -22 -12 -24 -10 -4 -10 -6
0 -6 14 -1 17 -51 3 -51 -5 0 -12 16 -15 35 -4 19 -11 35 -16 35 -13 0 -13
-27 0 -35 6 -3 10 -10 10 -16 0 -5 -4 -9 -10 -9 -5 0 -10 5 -10 11 0 6 -7 17
-15 25 -8 9 -15 11 -15 5 0 -27 -26 -2 -31 29 l-6 35 -2 -41 c-1 -36 -4 -41
-23 -40 -13 0 -26 6 -30 11 -5 6 -8 5 -8 -4 0 -7 -6 -11 -14 -8 -18 7 -27 -14
-19 -43 5 -19 3 -21 -28 -16 -19 3 -65 8 -104 12 -38 3 -73 11 -77 18 -6 8 -8
8 -8 -1 0 -7 -12 -13 -26 -13 -19 0 -25 4 -22 17 2 10 12 18 23 19 35 1 65 15
65 30 0 9 5 12 11 8 6 -3 9 -19 7 -35 -3 -16 -1 -29 4 -29 4 0 8 15 9 33 0 17
3 26 6 20 8 -22 61 -16 68 7 6 19 62 56 78 52 4 -1 7 5 7 14 0 12 9 15 38 13
20 -2 40 -8 44 -14 5 -6 8 -6 8 3 0 7 13 12 30 12 17 0 30 5 30 11 0 6 -9 8
-20 4 -15 -5 -18 -3 -14 9 4 9 1 16 -6 16 -10 0 -9 4 1 16 11 13 9 14 -16 8
-24 -6 -27 -4 -22 10 4 10 3 15 -3 11 -6 -3 -10 2 -11 12 0 16 -1 16 -9 -2 -8
-18 -9 -17 -9 7 -1 14 2 28 7 31 4 2 1 2 -7 0 -10 -2 -12 4 -7 24 5 23 4 25
-4 10 -13 -21 -34 -23 -26 -2 3 8 1 15 -5 15 -6 0 -6 7 1 20 8 15 8 18 -3 14
-9 -3 -17 3 -20 15 -3 12 -1 19 4 15 14 -8 11 29 -5 51 -19 29 -4 65 28 65 32
0 38 11 19 35 -15 20 -15 19 -10 -4 l6 -23 -20 21 -21 22 -18 -21 c-11 -13
-21 -17 -25 -10 -3 5 -3 10 1 10 4 0 -1 6 -11 14 -11 8 -23 12 -27 10 -12 -7
38 -54 58 -54 14 0 15 -3 6 -12 -9 -9 -15 -9 -23 -1 -6 6 -18 9 -25 6 -9 -3
-14 3 -15 18 0 24 -1 24 -11 3 -7 -15 -16 -20 -34 -16 -17 3 -24 0 -24 -12 0
-9 -4 -16 -10 -16 -5 0 -10 12 -10 28 0 19 -7 30 -22 37 -14 6 -22 17 -20 28
2 9 -2 17 -8 17 -25 0 -7 15 22 17 17 1 34 6 37 11 3 5 13 12 21 16 18 7 -31
-1 -54 -10 -11 -4 -16 -1 -16 10 0 10 -15 23 -32 31 -20 9 -26 14 -15 15 10 0
16 4 13 8 -3 4 8 7 25 6 16 -1 26 2 23 8 -3 5 -8 7 -11 4 -9 -8 -35 23 -28 33
3 6 13 8 23 5 13 -5 14 -4 3 4 -10 7 -8 13 10 26 30 20 38 20 63 -1 19 -17 19
-16 -1 7 -17 20 -19 28 -10 40 7 8 19 16 27 18 8 2 20 8 25 14 7 7 3 8 -12 3
-22 -6 -28 2 -24 28 0 4 -4 7 -10 7 -6 0 -9 -6 -6 -14 3 -8 0 -17 -8 -20 -8
-3 -15 0 -17 6 -3 8 -11 7 -27 -1 -21 -12 -22 -11 -11 9 18 33 75 54 112 41
20 -7 36 -7 47 -1 13 8 12 10 -9 10 -60 3 -63 12 -17 61 23 25 57 52 75 60 17
7 32 17 32 21 0 5 23 8 51 8 27 0 48 -3 45 -8 -2 -4 14 -8 37 -8 37 -1 39 0
17 8 -24 9 -24 10 -7 23 43 31 187 25 187 -8 0 -5 9 -7 21 -4 22 6 80 -11 91
-26 10 -16 119 -1 137 19 15 15 14 16 -5 5 -42 -21 -101 -22 -146 -1 -24 11
-54 20 -68 20 -14 0 -36 7 -50 14 l-25 14 40 8 c44 9 107 7 115 -4 3 -4 32 -8
65 -10 33 -1 95 -7 138 -13 64 -10 91 -9 160 5 45 9 98 18 117 20 19 2 7 3
-28 2 -63 -1 -76 5 -44 23 16 10 16 10 -1 11 -10 0 -20 -6 -23 -13 -2 -7 -24
-14 -51 -15 -25 -1 -52 -7 -59 -13 -11 -9 -14 -8 -14 5 0 14 -27 22 -66 17 -6
-1 -31 3 -55 7 -34 7 -48 5 -58 -5 -10 -11 -8 -13 13 -7 13 3 33 1 43 -5 14
-8 9 -10 -29 -11 -27 0 -48 4 -48 9 0 5 -8 8 -17 7 -27 -4 -74 15 -67 26 4 6
27 8 56 5 30 -4 46 -2 43 3 -4 6 -18 10 -33 10 -25 0 -24 2 18 32 34 25 55 33
103 36 38 3 54 8 46 13 -10 6 -6 8 11 7 36 -2 166 40 182 59 11 14 11 15 -7 6
-11 -6 -38 -13 -59 -16 -22 -4 -42 -10 -45 -15 -8 -13 -74 -24 -66 -12 3 6 14
10 24 10 9 0 26 8 37 18 48 43 164 82 244 82 18 0 21 3 11 9 -11 7 -49 3 -116
-15 -17 -4 -16 -2 5 15 32 26 13 27 -20 1 -34 -26 -60 -27 -36 -1 11 12 13 21
7 25 -6 4 -8 14 -5 24 5 15 5 15 -6 -1 -6 -9 -9 -21 -6 -26 3 -5 -2 -15 -12
-22 -15 -13 -16 -12 -3 4 17 21 12 21 -25 2 -17 -9 -56 -15 -92 -15 l-63 0 15
28 c22 41 82 96 97 87 8 -5 10 -4 5 3 -4 7 3 17 18 24 34 15 33 30 -1 23 -26
-6 -25 -5 5 9 42 20 41 27 -3 15 -39 -11 -59 -4 -51 16 3 9 -2 12 -16 10 -11
-3 -23 -7 -26 -9 -8 -9 20 -37 45 -47 23 -8 32 -29 13 -29 -14 0 -98 -89 -106
-112 -5 -16 -13 -19 -52 -16 -52 3 -72 28 -23 28 17 0 31 4 31 8 0 4 -16 6
-36 4 -29 -4 -35 -2 -29 9 5 8 -1 6 -12 -4 -11 -9 -31 -17 -46 -17 -14 0 -29
-5 -33 -11 -4 -7 -21 -9 -43 -5 -86 14 -112 14 -107 0 3 -8 0 -14 -8 -14 -25
0 -24 12 4 38 49 46 67 60 90 67 19 6 22 4 17 -9 -4 -9 -3 -16 2 -16 5 0 12
11 15 25 5 21 12 25 45 25 21 0 52 7 67 16 27 15 27 15 4 10 -14 -4 -45 -9
-70 -12 -44 -5 -44 -5 -20 10 14 8 36 16 50 16 14 1 34 5 45 10 13 6 3 7 -30
4 -37 -4 -46 -3 -35 5 8 6 33 11 55 12 36 1 37 2 11 8 l-29 6 40 18 c22 9 53
29 68 43 15 14 34 23 42 20 8 -3 11 -1 8 4 -5 9 8 12 31 9 4 0 10 4 13 9 3 5
21 17 39 26 56 29 28 30 -32 2 -30 -14 -57 -26 -60 -26 -2 0 -7 10 -9 23 -4
18 -5 17 -6 -7 -1 -21 -5 -27 -16 -22 -8 3 -15 2 -15 -2 0 -5 -16 -14 -36 -21
-20 -7 -44 -20 -54 -30 -10 -9 -25 -21 -33 -28 -8 -7 -17 -17 -19 -23 -2 -6
-15 -13 -28 -14 -14 -2 -37 -7 -53 -11 -23 -6 -26 -4 -21 9 9 23 -1 20 -29 -8
-14 -14 -41 -28 -61 -31 -19 -4 -34 -12 -33 -18 1 -6 -7 -13 -18 -15 -17 -4
-18 -2 -5 12 11 15 11 17 -1 14 -8 -2 -19 -10 -26 -18 -7 -8 -13 -10 -13 -5 0
6 -5 3 -11 -5 -7 -10 -9 -11 -7 -2 2 8 7 13 11 13 4 -1 16 8 27 19 11 11 34
23 50 26 16 4 28 11 27 16 -1 6 4 13 12 16 10 3 11 0 5 -9 -4 -8 9 -1 29 14
21 16 37 23 37 16 0 -7 16 14 36 47 19 32 56 80 82 107 30 30 41 47 30 47 -9
0 -18 -7 -22 -15 -7 -19 -26 -20 -26 -1 0 8 10 18 23 22 12 4 22 6 22 4 0 -2
11 2 24 9 16 9 20 15 12 21 -9 5 -9 9 3 13 9 4 16 2 16 -3 0 -6 5 -10 12 -10
6 0 8 3 5 7 -4 3 -2 12 5 20 9 11 6 12 -16 3 -15 -5 -31 -8 -36 -5 -4 2 -15
-4 -25 -15 -10 -11 -21 -17 -26 -15 -4 3 -10 1 -14 -5 -4 -6 -11 -8 -16 -5
-11 7 17 65 31 65 5 0 25 13 43 30 19 16 38 26 42 22 5 -4 5 -1 1 6 -6 11 -13
8 -32 -9 -13 -13 -55 -37 -92 -55 -38 -19 -58 -33 -46 -34 11 0 25 5 32 12 26
26 12 -16 -15 -44 -24 -25 -25 -28 -7 -28 13 0 7 -7 -21 -25 -22 -13 -35 -25
-29 -25 6 0 27 11 47 24 37 26 47 24 47 -5 0 -13 -5 -17 -17 -13 -15 5 -16 4
-3 -5 13 -9 10 -15 -17 -40 -17 -16 -34 -26 -37 -23 -3 3 -6 -4 -6 -16 0 -14
-13 -30 -40 -47 -22 -14 -44 -25 -49 -25 -5 0 -14 -6 -20 -14 -12 -14 -101
-49 -108 -43 -1 2 6 13 17 25 25 27 26 41 1 18 -13 -12 -27 -15 -45 -10 -17 4
-26 2 -26 -6 0 -6 5 -8 10 -5 6 3 10 1 10 -5 0 -6 -13 -16 -30 -21 -16 -6 -27
-15 -24 -20 3 -5 10 -7 15 -4 5 4 9 2 9 -3 0 -15 -27 -22 -73 -21 l-42 1 40
13 c30 10 34 14 16 14 -19 1 -21 4 -12 15 7 8 26 18 42 21 16 4 27 10 24 15
-5 9 26 23 41 18 15 -4 74 26 74 39 0 6 10 15 21 18 17 6 19 9 8 16 -10 6 -11
9 -1 9 6 0 12 6 12 13 0 7 12 18 28 25 27 11 26 11 -8 6 l-35 -5 28 16 c15 9
27 17 27 20 0 10 -61 0 -71 -12 -14 -16 -62 -18 -57 -1 3 7 16 15 29 19 14 3
55 25 91 48 36 22 70 41 76 41 6 0 14 5 18 12 5 8 2 9 -11 4 -17 -6 -18 -5 -3
11 32 38 29 47 -5 14 -22 -20 -40 -30 -48 -26 -7 5 -10 4 -5 -3 8 -14 -74 -77
-121 -93 -27 -9 -37 -9 -43 1 -5 8 -10 9 -14 2 -3 -6 -15 -10 -26 -9 -14 1
-17 4 -9 12 10 10 14 11 43 14 8 0 17 8 20 17 6 15 4 15 -11 3 -14 -11 -13 -9
2 13 11 15 29 31 39 36 17 7 18 9 3 15 -9 3 -31 -4 -52 -18 -31 -22 -34 -22
-25 -6 14 28 12 50 -3 26 -13 -22 -67 -34 -67 -14 0 8 -4 8 -12 1 -16 -12 -98
-22 -98 -12 0 4 10 11 23 14 36 10 58 32 51 50 -6 15 -8 15 -18 2 -6 -8 -24
-20 -40 -26 -25 -9 -28 -8 -22 7 5 15 4 15 -9 -1 -12 -16 -12 -22 -2 -29 8 -6
6 -7 -6 -3 -10 3 -21 6 -23 6 -3 0 -2 6 3 13 8 12 9 17 12 37 0 6 7 10 15 10
8 0 17 4 20 9 3 5 -11 7 -32 4 -29 -4 -35 -2 -25 8 7 7 20 13 30 14 10 1 46
16 80 33 58 30 71 48 48 69 -4 4 -5 2 -1 -4 4 -8 2 -13 -6 -13 -7 0 -29 -14
-48 -30 -36 -31 -70 -39 -70 -17 -1 6 -7 1 -14 -12 -9 -16 -16 -20 -20 -12 -4
7 -2 19 6 29 12 16 11 16 -13 0 -26 -16 -27 -16 -32 2 -6 25 -27 26 -27 3 0
-15 2 -16 10 -3 5 8 10 10 10 5 0 -16 -38 -46 -45 -35 -4 6 -2 10 4 10 12 0 4
27 -14 50 -6 8 -10 25 -9 38 1 19 -2 21 -20 16 -11 -4 -21 -7 -21 -8 0 0 -6
-10 -13 -21 -7 -11 -20 -32 -30 -48 -9 -15 -23 -25 -29 -22 -7 2 -13 -1 -13
-8 0 -7 -8 -20 -17 -29 -10 -9 -24 -24 -32 -33 -7 -9 -14 -15 -16 -13 -7 7 40
133 55 148 33 30 93 63 120 65 8 0 14 8 14 18 -1 9 2 14 7 11 5 -3 14 8 21 23
20 46 83 100 141 119 9 4 17 10 17 14 0 12 -42 0 -62 -18 -16 -14 -18 -13 -18
8 0 28 -8 23 -13 -8 -4 -24 -61 -72 -86 -72 -13 -1 -13 -2 2 -11 23 -14 21
-28 -6 -38 -13 -5 -36 -20 -53 -33 -39 -32 -85 -60 -89 -56 -3 2 1 15 8 28 7
14 13 28 13 32 -1 9 50 48 63 48 15 0 14 -17 -1 -23 -10 -4 -10 -6 -1 -6 7 -1
27 8 45 19 34 21 32 28 -3 10 -11 -7 -19 -7 -19 -1 0 5 6 12 13 15 13 6 -18 0
-55 -10 l-21 -6 19 30 c10 17 35 50 55 74 20 24 39 54 43 68 l6 25 -13 -25
c-17 -35 -78 -110 -90 -110 -5 0 -3 8 4 17 12 14 12 16 0 9 -11 -7 -12 -1 -7
30 3 22 6 47 7 56 0 9 7 22 15 29 8 6 14 17 14 24 0 6 7 26 16 44 9 18 13 35
10 38 -3 4 -6 1 -6 -6 0 -7 -4 -9 -10 -6 -5 3 -7 0 -4 -9 7 -19 -25 -68 -39
-59 -6 4 -8 0 -4 -11 8 -20 -33 -88 -49 -82 -7 3 -10 -6 -8 -20 4 -36 -12 -38
-26 -4 -15 36 -25 34 -11 -2 7 -18 6 -29 -2 -38 -9 -10 -9 -11 0 -6 11 6 23
-31 28 -88 2 -28 -23 -76 -37 -73 -7 1 -15 -15 -18 -36 -4 -21 -14 -46 -24
-55 -15 -15 -16 -15 -17 3 -1 11 -1 26 0 33 1 6 -3 12 -9 12 -8 0 -10 -13 -5
-38 7 -42 -12 -69 -40 -58 -9 3 -15 0 -15 -9 0 -8 -7 -15 -15 -15 -8 0 -15 -5
-15 -11 0 -5 -4 -8 -10 -4 -6 3 -5 15 2 31 7 15 14 20 18 13 10 -16 24 8 26
46 1 17 7 44 14 60 11 28 13 28 20 10 8 -18 9 -18 9 5 1 29 29 75 59 96 12 8
26 24 32 34 9 17 8 19 -7 13 -10 -3 -28 -15 -40 -26 l-22 -20 4 23 c2 12 1 20
-2 16 -4 -4 -8 -13 -9 -20 -3 -18 -73 -144 -84 -151 -14 -9 -23 16 -11 28 17
17 13 26 -9 20 -18 -5 -20 0 -20 35 0 23 5 44 10 47 6 4 8 11 5 16 -4 5 -1 9
6 9 7 0 9 3 6 6 -13 13 -37 -19 -37 -49 0 -43 -8 -30 -20 32 -17 92 -16 140 6
156 10 8 24 14 29 15 6 0 3 -5 -5 -11 -12 -9 -12 -10 -1 -7 9 3 16 19 18 39 2
29 1 31 -7 12 -12 -28 -24 -30 -15 -3 9 29 -4 25 -15 -5 -14 -38 -30 -30 -30
14 0 22 -3 42 -7 44 -5 3 -8 -18 -8 -46 0 -33 -5 -52 -14 -55 -9 -3 -11 1 -7
16 4 11 8 50 10 85 1 35 6 69 10 75 4 7 2 12 -3 12 -6 0 -11 6 -11 14 0 8 -4
17 -9 21 -6 3 -8 -9 -4 -29 3 -19 2 -52 -2 -73 l-7 -38 -14 30 -14 30 5 -28
c4 -17 0 -36 -7 -45 -11 -13 -11 -14 1 -7 10 6 12 4 7 -4 -5 -7 -14 -10 -22
-7 -8 3 -17 -1 -20 -9 -4 -8 -10 -12 -15 -9 -5 3 -9 -1 -9 -9 0 -7 -11 -23
-25 -35 -19 -17 -25 -18 -25 -7 0 8 -5 15 -11 15 -5 0 -7 5 -3 12 4 7 3 8 -4
4 -7 -4 -12 -1 -12 6 0 9 -3 9 -10 -2 -9 -13 -11 -13 -20 0 -9 14 -14 7 -11
-13 1 -5 -13 1 -31 13 -32 21 -32 21 -9 1 13 -12 21 -24 18 -27 -8 -9 -109 -8
-129 1 -22 9 -24 53 -4 80 11 16 17 17 29 7 10 -9 17 -10 22 -2 3 6 11 7 17 4
7 -4 8 -2 4 4 -4 7 -3 12 2 12 5 0 9 7 9 15 0 8 -4 12 -9 9 -15 -10 -31 8 -17
18 13 9 -14 4 -48 -9 -7 -3 -13 0 -13 6 0 6 5 11 11 11 5 0 7 5 4 10 -4 6 -16
8 -27 4 -17 -5 -18 -3 -9 15 8 14 8 21 1 21 -5 0 -10 7 -10 16 0 11 -5 14 -16
10 -9 -3 -20 -6 -24 -6 -6 0 -6 -10 -1 -22 5 -13 14 -22 20 -20 12 2 15 -37 3
-54 -8 -13 -46 -34 -61 -34 -5 0 -12 8 -14 18 -4 15 -5 15 -6 -2 -1 -12 -6
-16 -16 -12 -8 3 -15 1 -15 -4 0 -6 5 -10 11 -10 8 0 8 -5 -1 -15 -7 -8 -9
-15 -6 -15 4 0 2 -9 -4 -21 -9 -15 -8 -24 1 -35 10 -12 6 -18 -12 -16 -4 1 -6
-6 -5 -16 0 -10 -6 -16 -16 -16 -20 2 -23 -7 -8 -22 15 -15 -17 -54 -46 -54
-20 0 -24 5 -25 33 0 27 -2 29 -9 12 -4 -12 -15 -27 -24 -34 -14 -11 -16 -11
-16 3 0 11 -5 14 -12 10 -8 -5 -9 0 -5 17 4 13 7 29 8 34 0 6 4 1 9 -10 7 -17
9 -17 9 -3 1 13 8 17 29 15 15 -2 33 -6 39 -10 7 -4 14 -3 17 2 4 5 1 11 -6
13 -19 7 2 30 22 25 12 -3 20 2 23 13 4 17 2 17 -29 4 -40 -17 -41 -13 -19 80
13 55 13 58 -3 43 -9 -9 -16 -31 -17 -49 -2 -67 -16 -108 -37 -108 -16 0 -18
4 -12 18 10 21 9 69 0 98 -5 14 -2 26 8 36 8 9 12 18 9 22 -9 9 30 36 41 29 5
-4 6 -1 3 4 -4 6 0 13 8 17 11 4 15 -2 16 -22 1 -15 3 -20 6 -11 3 14 53 34
74 31 4 -1 4 8 1 20 -5 21 -6 21 -13 2 -4 -10 -8 -15 -8 -10 -1 5 -8 3 -16 -4
-28 -23 -40 9 -20 53 5 12 10 15 15 7 5 -8 11 -6 20 5 11 13 10 14 -5 9 -14
-6 -16 -4 -11 7 4 8 -4 2 -18 -13 -14 -16 -28 -24 -31 -18 -14 23 -54 -24 -64
-77 0 -3 -9 4 -20 15 -18 21 -19 72 -1 72 4 0 10 9 13 20 3 11 1 20 -4 20 -5
0 -9 -6 -9 -14 0 -13 -27 -31 -42 -28 -12 3 -3 -49 10 -57 9 -5 10 -14 3 -32
-6 -14 -10 -18 -11 -9 -1 11 -3 10 -9 -3 -11 -28 -26 -21 -26 12 0 16 2 29 5
28 6 -2 10 8 10 23 0 5 -7 7 -15 4 -10 -4 -15 0 -15 12 0 16 -2 17 -11 4 -8
-12 -9 -8 -6 15 2 17 2 24 0 17 -3 -8 -11 -11 -19 -8 -18 7 -18 1 4 -31 9 -15
11 -24 5 -20 -7 5 -13 4 -13 -1 0 -5 -9 -8 -20 -7 -22 1 -40 15 -20 15 8 0 9
4 3 13 -16 20 -22 56 -10 60 8 2 8 5 0 10 -7 4 -14 3 -18 -2z m280 -80 c-3 -6
-11 -11 -17 -11 -6 0 -6 6 2 15 14 17 26 13 15 -4z m-98 -103 c-3 -7 -5 -2 -5
12 0 14 2 19 5 13 2 -7 2 -19 0 -25z m370 6 c-3 -3 -12 -4 -19 -1 -8 3 -5 6 6
6 11 1 17 -2 13 -5z m-424 -27 c18 -28 32 -87 20 -87 -12 0 -43 65 -43 90 0
26 4 25 23 -3z m47 -5 c0 -4 -4 -13 -8 -20 -6 -9 -12 -5 -20 13 -16 35 -15 37
8 25 11 -6 20 -14 20 -18z m299 -24 c-6 -22 -5 -34 3 -39 12 -7 4 -40 -9 -38
-30 5 -43 -3 -40 -23 2 -13 2 -17 0 -10 -3 6 -10 12 -16 12 -16 0 -38 48 -26
56 5 3 9 10 9 15 0 6 -4 7 -10 4 -5 -3 -10 -2 -10 4 0 15 18 23 22 10 2 -6 19
3 37 20 39 37 53 33 40 -11z m-407 -28 c41 -61 45 -75 24 -83 -16 -6 -50 26
-39 36 3 4 1 7 -5 7 -7 0 -13 10 -13 23 l-2 22 -4 -23 c-3 -17 -9 -21 -23 -17
-10 3 -22 0 -26 -7 -4 -7 -3 -10 1 -5 5 4 17 -1 28 -10 12 -11 17 -12 12 -4
-6 10 -4 12 4 7 7 -5 10 -14 7 -21 -3 -8 2 -11 15 -8 27 7 24 -4 -8 -32 -31
-26 -48 -22 -90 23 -26 28 -27 35 -13 61 7 14 5 23 -10 36 -21 19 -27 45 -9
45 5 0 7 -6 3 -12 -4 -7 2 -5 12 5 13 12 31 17 59 15 36 -3 43 -8 77 -58z
m-186 25 c-16 -17 -36 -20 -36 -6 0 8 17 16 43 20 5 0 2 -6 -7 -14z m225 -12
c12 -14 12 -16 0 -9 -9 6 -12 5 -10 -3 3 -7 8 -11 11 -9 9 4 37 -33 38 -49 0
-7 -5 -13 -11 -13 -5 0 -8 4 -4 9 3 6 -3 15 -14 21 -24 13 -44 47 -36 60 8 13
10 13 26 -7z m-201 -2 c0 -12 -20 -25 -27 -18 -7 7 6 27 18 27 5 0 9 -4 9 -9z
m935 -38 c-7 -17 -8 -17 -15 2 -5 11 -9 27 -9 35 -1 12 2 11 15 -2 11 -11 14
-23 9 -35z m22 10 c-3 -10 -5 -4 -5 12 0 17 2 24 5 18 2 -7 2 -21 0 -30z
m-1055 5 c-12 -12 -35 -1 -27 12 3 5 13 6 21 3 10 -4 12 -9 6 -15z m374 -56
c-11 -10 -14 3 -7 38 l6 35 3 -33 c2 -19 1 -36 -2 -40z m-406 37 c0 -5 -4 -9
-10 -9 -5 0 -10 7 -10 16 0 8 5 12 10 9 6 -3 10 -10 10 -16z m106 -31 c13 -24
13 -28 0 -28 -8 0 -16 6 -19 13 -3 9 -7 9 -20 -1 -17 -14 -37 -9 -37 9 0 6 8
21 18 34 19 26 34 20 58 -27z m828 5 c-13 -20 -34 -29 -34 -14 0 6 7 11 15 11
8 0 15 4 15 10 0 5 -8 6 -17 3 -16 -6 -16 -5 -4 11 19 22 41 4 25 -21z m99 24
c3 -7 -3 -13 -14 -13 -13 0 -15 3 -7 13 6 7 12 13 13 13 2 0 5 -6 8 -13z m109
-42 c3 -14 3 -23 0 -20 -3 2 -11 0 -19 -6 -10 -9 -13 -5 -13 18 0 50 23 55 32
8z m-338 16 c4 -5 22 -8 41 -7 38 3 47 -9 15 -19 -17 -5 -80 18 -80 30 0 9 19
5 24 -4z m-650 -29 c18 -34 29 -102 17 -102 -12 0 -24 37 -16 50 3 5 1 10 -5
10 -7 0 -10 7 -6 15 3 8 1 15 -4 15 -6 0 -10 9 -10 20 0 27 7 25 24 -8z m446
7 c0 -5 -11 -22 -25 -37 l-26 -27 11 25 c6 14 13 33 16 42 6 18 24 15 24 -3z
m96 5 c-3 -9 -6 -27 -6 -40 0 -13 -5 -24 -11 -24 -9 0 -11 54 -1 73 7 14 24 7
18 -9z m372 -4 c12 -13 13 -13 8 3 -3 10 -2 15 3 12 6 -3 10 -14 10 -25 1 -11
1 -29 2 -41 0 -12 -8 -28 -18 -36 -16 -13 -16 -13 6 -3 19 10 25 9 32 -1 12
-19 11 -49 -1 -49 -5 0 -14 -8 -19 -19 -8 -15 -5 -20 17 -30 24 -10 25 -10 10
2 -22 17 -23 37 -4 37 14 0 43 -96 32 -107 -3 -3 -25 12 -49 34 -24 22 -53 49
-65 59 -12 10 -22 24 -22 30 0 7 -8 11 -17 10 -10 0 -17 5 -15 12 1 6 -4 12
-12 12 -8 0 -16 6 -19 13 -2 6 -8 8 -13 4 -5 -5 -1 -13 9 -18 28 -16 20 -35
-31 -67 -41 -27 -178 -159 -141 -137 12 8 12 6 0 -8 -14 -18 -22 -22 -19 -9 0
4 -2 15 -7 25 -4 9 -4 51 0 92 6 72 9 77 53 124 47 49 128 88 159 77 7 -3 13
-1 13 5 0 6 7 9 15 5 8 -3 15 -1 15 3 0 15 54 7 68 -9z m401 -31 c-19 -11 -20
-6 -6 24 11 25 12 25 15 6 2 -12 -2 -25 -9 -30z m-706 34 c4 -3 19 -8 33 -9
36 -4 39 -9 17 -31 -10 -10 -32 -35 -49 -56 l-31 -38 -17 42 c-14 34 -15 47
-5 71 11 26 37 37 52 21z m-388 -13 c3 -5 1 -10 -4 -10 -6 0 -11 5 -11 10 0 6
2 10 4 10 3 0 8 -4 11 -10z m-355 -10 c0 -4 -8 -15 -19 -24 -17 -16 -19 -16
-24 3 -3 11 0 22 7 24 18 6 36 4 36 -3z m112 -50 c16 -48 16 -49 -11 -74 -24
-23 -70 -46 -91 -46 -5 0 -16 23 -25 52 l-15 52 35 36 c28 29 42 36 64 32 23
-3 30 -12 43 -52z m226 35 c8 -18 8 -25 1 -25 -8 0 -8 -4 -1 -12 5 -7 7 -21 3
-31 -6 -15 -10 -15 -46 10 -22 14 -42 28 -44 29 -9 8 34 44 46 39 8 -2 11 0 8
5 -3 6 0 10 8 10 7 0 19 -11 25 -25z m282 -9 c5 -13 15 -28 23 -33 22 -13 49
-72 42 -93 -7 -22 -30 -25 -70 -10 -22 8 -24 13 -15 30 8 15 8 20 -2 20 -7 0
-14 -11 -14 -25 -1 -14 3 -25 8 -25 6 0 8 -7 4 -15 -3 -8 -1 -15 5 -15 14 0
31 -49 23 -72 -5 -17 -7 -16 -27 9 -12 15 -27 34 -34 41 -7 7 -13 20 -13 27 0
8 -9 17 -20 20 -31 10 -44 42 -30 76 7 16 18 29 25 29 6 0 20 9 30 20 10 11
28 20 39 20 17 0 18 2 6 10 -10 7 -11 10 -2 10 7 0 17 -11 22 -24z m-656 -89
c9 -44 18 -82 21 -87 3 -4 -1 -13 -9 -19 -10 -9 -22 1 -54 44 l-42 55 27 55
c31 64 34 61 57 -48z m1453 81 c-3 -8 -6 -5 -6 6 -1 11 2 17 5 13 3 -3 4 -12
1 -19z m-287 2 c0 -5 -7 -10 -15 -10 -8 0 -15 5 -15 10 0 6 7 10 15 10 8 0 15
-4 15 -10z m317 -27 c-17 -29 -23 -34 -25 -20 -2 10 4 27 14 38 28 32 35 22
11 -18z m-1250 4 c-6 -20 -27 -19 -27 2 0 14 5 19 15 14 9 -3 14 -10 12 -16z
m941 -57 c0 -9 -3 -7 -8 5 -5 11 -8 29 -8 40 0 16 2 15 8 -5 4 -14 8 -32 8
-40z m-839 23 c42 -30 46 -39 56 -140 6 -53 4 -63 -8 -63 -9 0 -19 5 -22 10
-3 6 -12 10 -18 10 -7 0 -1 -9 13 -20 21 -16 23 -21 11 -32 -12 -11 -13 -10
-8 5 6 15 2 14 -23 -5 -17 -12 -30 -26 -30 -31 0 -5 7 -4 15 3 9 8 15 9 15 2
0 -6 -5 -14 -10 -17 -6 -4 -8 -10 -5 -15 3 -5 1 -11 -4 -15 -14 -8 -61 -114
-61 -136 0 -13 -7 -19 -21 -19 -11 0 -17 -5 -14 -10 4 -6 10 -8 15 -5 9 6 4
-124 -5 -134 -3 -2 -12 2 -20 10 -18 18 -51 192 -37 197 16 5 -8 83 -40 130
-16 23 -42 52 -59 64 -56 42 -36 85 66 143 27 16 64 44 81 62 38 40 62 41 113
6z m172 4 c-1 -4 -1 -12 -1 -19 0 -6 -9 -3 -20 7 -26 23 -26 36 1 27 11 -5 20
-11 20 -15z m-48 -1 c4 -10 1 -13 -9 -9 -15 6 -19 23 -5 23 5 0 11 -7 14 -14z
m25 -52 c61 -40 70 -56 52 -88 -7 -14 -10 -49 -8 -85 1 -33 0 -61 -5 -61 -4 0
-1 -10 8 -23 16 -25 12 -39 -9 -31 -13 5 -16 -30 -4 -42 4 -3 4 -12 1 -20 -3
-8 -1 -14 4 -14 13 0 0 -121 -17 -150 -7 -14 -13 -27 -12 -30 2 -10 -42 -90
-49 -90 -4 0 -11 5 -14 10 -3 6 -11 10 -17 10 -6 0 -1 -9 11 -19 16 -14 21
-26 16 -41 -5 -15 -10 -18 -19 -11 -9 7 -19 6 -34 -5 -21 -14 -22 -14 -22 10
0 16 -6 26 -15 26 -8 0 -15 5 -15 11 0 5 6 7 13 3 9 -5 9 -3 -1 7 -11 12 -14
12 -22 -1 -16 -26 -47 18 -53 74 -3 32 -2 44 5 35 6 -9 7 -1 3 26 -8 57 18
165 47 188 13 10 17 16 11 12 -21 -10 -15 2 23 52 44 58 49 63 41 41 -3 -10
-3 -17 1 -17 20 3 33 -2 27 -11 -8 -13 28 0 37 14 4 6 13 5 25 -5 16 -13 17
-12 5 3 -11 14 -10 18 5 27 10 6 13 11 8 11 -6 0 -16 -5 -21 -10 -8 -8 -19 -7
-37 1 -29 13 -36 36 -14 45 8 3 14 11 14 19 0 10 -4 12 -12 5 -10 -8 -16 5
-25 54 -11 60 -8 106 8 106 4 0 31 -16 60 -36z m552 -14 c11 -11 20 -27 20
-37 0 -9 2 -14 6 -11 9 10 82 -65 77 -79 -7 -18 -30 -16 -37 3 -5 13 -9 14
-21 4 -13 -11 -15 -7 -15 26 0 24 -3 34 -9 26 -4 -7 -5 -33 -1 -58 5 -32 3
-47 -7 -56 -11 -9 -11 -14 2 -28 19 -21 19 -34 0 -50 -8 -7 -15 -8 -15 -3 0 6
-16 9 -35 8 -31 -2 -33 -1 -25 15 14 26 12 33 -6 26 -8 -3 -12 -2 -9 3 3 5 1
12 -4 15 -17 11 -22 -12 -6 -28 9 -9 11 -17 5 -21 -5 -3 -10 -17 -10 -29 0
-19 -7 -24 -37 -29 -21 -4 -40 -2 -43 4 -4 5 -14 1 -25 -11 -10 -11 -24 -20
-32 -20 -7 0 -13 -4 -13 -10 0 -26 -95 -48 -130 -30 -19 10 -19 12 -4 36 10
14 23 23 30 20 7 -3 11 0 8 7 -5 14 91 146 113 154 8 3 12 11 9 18 -6 16 22
57 35 50 5 -4 9 1 9 9 0 18 106 96 132 96 10 0 27 -9 38 -20z m-1083 -46 c13
-21 23 -47 23 -56 0 -23 -69 -100 -82 -92 -13 8 -4 137 10 142 5 1 7 14 4 29
-7 38 18 25 45 -23z m745 -11 c-4 -24 -22 -22 -22 2 0 7 -6 16 -12 18 -7 3 -1
5 13 4 21 -1 25 -5 21 -24z m880 5 c-14 -14 -16 -32 -3 -24 15 10 23 -45 9
-62 -27 -35 -48 -41 -48 -16 0 11 5 14 17 10 10 -4 14 -4 11 -1 -4 4 -3 18 3
32 6 16 6 22 -1 18 -6 -3 -10 -1 -10 5 0 6 -5 8 -11 4 -6 -3 -3 5 6 20 10 14
22 26 28 26 7 0 7 -4 -1 -12z m-872 -168 c-16 -30 -43 -71 -59 -90 -28 -33
-31 -34 -47 -19 -15 16 -14 22 22 90 20 41 53 99 73 129 l36 55 3 -55 c2 -46
-2 -64 -28 -110z m-110 117 c0 -6 7 -19 17 -29 15 -17 15 -21 -2 -58 -10 -22
-26 -47 -35 -55 -17 -15 -19 -15 -24 2 -13 43 -15 78 -4 90 7 9 7 13 -1 13
-12 0 -15 32 -4 43 3 4 13 1 21 -6 13 -10 14 -8 7 13 -7 22 -6 23 9 11 9 -7
16 -18 16 -24z m634 17 c3 -8 2 -12 -4 -9 -6 3 -10 10 -10 16 0 14 7 11 14 -7z
m313 -42 c-11 -12 -17 -36 -17 -65 0 -26 -3 -47 -7 -48 -5 0 -16 -2 -25 -4
-11 -2 -18 3 -18 12 0 10 6 13 23 8 16 -5 18 -4 8 3 -8 6 -11 17 -8 25 3 8 1
19 -5 25 -8 8 -1 20 21 43 33 32 57 33 28 1z m-306 -9 c-8 -15 -10 -15 -11 -2
0 17 10 32 18 25 2 -3 -1 -13 -7 -23z m149 -34 c-7 -16 -15 -29 -19 -29 -14 0
-9 45 7 61 22 21 27 6 12 -32z m-1364 27 c8 -21 -14 -119 -39 -174 -16 -36
-22 -42 -25 -27 -2 11 -7 25 -12 30 -20 28 -17 45 13 77 18 18 36 32 40 30 5
-1 5 3 2 9 -5 7 -21 -2 -45 -26 -55 -54 -56 -29 -2 37 49 61 59 67 68 44z
m1129 -34 c-5 -13 -8 -14 -14 -3 -6 10 -11 5 -16 -18 -7 -33 -19 -40 -29 -16
-3 9 8 30 27 52 25 29 33 33 35 19 2 -9 1 -25 -3 -34z m-1941 17 c27 -12 50
-30 55 -42 17 -45 21 -77 11 -77 -5 0 -10 6 -10 13 0 20 -29 43 -72 57 -33 10
-38 16 -38 41 0 16 2 29 4 29 2 0 25 -9 50 -21z m1896 -1 c0 -5 -4 -7 -9 -4
-5 4 -12 0 -14 -6 -3 -7 -6 -3 -6 9 -1 16 3 21 14 17 8 -4 15 -10 15 -16z
m-1780 4 c0 -7 56 -38 133 -73 31 -14 31 -29 -1 -44 -12 -5 -22 -16 -22 -23 0
-7 -5 -10 -10 -7 -6 4 -7 11 -4 17 4 7 2 8 -4 4 -7 -4 -18 -4 -24 1 -22 13
-38 12 -38 -4 0 -8 -5 -13 -12 -11 -14 5 -37 45 -61 106 l-17 42 30 0 c17 0
30 -4 30 -8z m1870 -73 c0 -15 -7 -32 -15 -39 -8 -7 -15 -18 -15 -25 0 -7 -8
-19 -17 -26 -15 -12 -16 -12 -9 6 11 31 17 66 26 150 1 16 4 15 15 -10 8 -16
14 -42 15 -56z m420 64 c0 -5 -4 -15 -10 -23 -11 -18 -25 -7 -17 15 6 15 27
21 27 8z m-1483 -63 c19 -27 22 -44 20 -106 -2 -71 -5 -82 -21 -67 -4 4 -26 6
-50 4 -24 -1 -47 2 -51 8 -3 6 -11 9 -16 6 -16 -10 -10 42 11 95 11 28 20 61
20 73 0 58 43 51 87 -13z m326 40 c8 0 8 -3 1 -10 -12 -12 -44 -3 -44 12 0 6
7 7 16 4 9 -3 21 -6 27 -6z m1097 -4 c0 -8 -4 -18 -10 -21 -5 -3 -10 3 -10 14
0 12 5 21 10 21 6 0 10 -6 10 -14z m-76 -14 c-6 -4 -17 -20 -25 -36 -8 -16
-20 -31 -27 -34 -7 -2 2 17 19 43 17 25 34 43 37 40 4 -3 2 -9 -4 -13z m230 6
c-22 -40 -59 -80 -80 -88 -13 -5 -23 -13 -22 -17 2 -5 -1 -8 -7 -9 -5 0 -9 8
-7 19 3 14 0 17 -10 11 -11 -6 -11 -5 0 8 10 12 10 18 1 23 -6 4 -15 1 -20 -6
-6 -10 -9 -10 -9 -2 0 7 9 17 20 23 11 6 20 7 19 3 -4 -24 4 -22 31 7 16 17
34 29 40 25 5 -3 10 -1 10 4 0 6 9 11 21 11 13 0 18 -4 13 -12z m-359 -52 c-4
-20 -11 -36 -17 -36 -5 0 -6 5 -2 12 4 6 7 27 6 46 -1 25 2 32 9 25 6 -6 8
-25 4 -47z m-2714 22 c-4 -12 -14 -24 -20 -26 -8 -3 -7 5 4 22 21 32 27 33 16
4z m2509 3 c0 -10 -7 -22 -16 -25 -8 -3 -13 -2 -11 2 2 4 7 15 10 25 8 23 17
22 17 -2z m290 7 c0 -17 -31 -48 -47 -48 -10 0 -8 6 7 22 11 12 20 25 20 30 0
4 5 8 10 8 6 0 10 -5 10 -12z m-2206 -19 c36 -28 34 -43 -6 -34 -18 3 -40 8
-48 9 -8 2 -16 13 -18 24 -4 29 35 30 72 1z m2046 2 c0 -6 -4 -13 -10 -16 -5
-3 -10 1 -10 9 0 9 5 16 10 16 6 0 10 -4 10 -9z m45 -1 c3 -5 1 -10 -4 -10 -6
0 -11 5 -11 10 0 6 2 10 4 10 3 0 8 -4 11 -10z m-33 -32 c-3 -14 -2 -19 6 -14
7 4 12 1 12 -9 0 -24 -30 -76 -40 -70 -13 8 -9 67 6 93 18 28 24 28 16 0z
m-1749 -58 c21 -39 35 -70 30 -70 -4 0 -28 11 -53 24 -50 25 -64 54 -31 63 12
3 21 10 21 15 0 5 -9 6 -20 3 -11 -3 -20 -2 -20 2 0 10 21 33 30 33 3 0 22
-32 43 -70z m2000 63 c-7 -2 -13 -11 -13 -19 0 -8 -10 -14 -22 -14 -20 0 -21
1 -3 20 10 11 25 20 34 19 10 0 12 -2 4 -6z m-477 -49 c-3 -7 0 -14 5 -16 6
-2 4 -17 -4 -38 -8 -19 -13 -51 -12 -70 3 -50 -3 -70 -22 -63 -8 3 -19 0 -24
-8 -5 -9 -7 -3 -4 16 2 17 4 41 4 54 1 15 6 21 14 18 10 -4 13 2 9 18 -2 12 1
26 7 29 6 4 11 15 11 24 0 10 -3 13 -8 7 -4 -5 -14 -12 -22 -14 -8 -2 -23 -6
-32 -8 -14 -4 -18 1 -19 18 0 13 -3 18 -6 11 -2 -6 -9 -10 -14 -7 -5 4 -6 0
-3 -8 5 -15 53 -42 67 -39 4 1 3 -7 -4 -19 -9 -18 -13 -19 -21 -8 -6 10 -7 4
-3 -18 8 -38 -1 -73 -18 -73 -24 0 -39 18 -42 49 -1 17 -5 34 -8 38 -4 3 -1
13 6 22 11 14 10 14 -6 2 -13 -10 -15 -17 -6 -27 9 -11 8 -14 -5 -14 -9 0 -16
-5 -16 -11 0 -20 -20 3 -21 24 0 12 -3 16 -6 10 -3 -10 -10 -10 -25 -2 -11 6
-22 8 -25 5 -3 -3 6 -10 21 -15 43 -17 29 -30 -15 -14 -23 7 -44 12 -46 9 -9
-9 8 -25 21 -20 12 5 106 -31 106 -40 0 -8 -75 7 -78 16 -2 4 -11 8 -20 7 -11
0 -12 -2 -4 -6 6 -2 12 -11 12 -19 0 -9 5 -12 10 -9 6 3 10 0 10 -7 0 -10 2
-10 9 1 5 8 14 10 22 5 8 -4 26 -7 41 -5 22 2 28 -2 28 -16 0 -15 -2 -16 -10
-3 -8 13 -10 12 -10 -2 0 -16 -11 -23 -32 -19 -5 0 -7 -4 -5 -10 5 -26 -23
-18 -38 10 -8 17 -21 30 -28 28 -6 -1 -11 4 -9 11 2 11 -7 13 -37 8 -32 -4
-40 -2 -43 12 -3 13 -5 12 -10 -6 -6 -21 -4 -23 33 -20 31 1 45 -4 66 -25 24
-23 25 -29 14 -50 -13 -24 -69 -57 -97 -57 -8 0 -12 -4 -9 -10 3 -5 1 -10 -4
-10 -6 0 -11 5 -11 10 0 6 -4 10 -9 10 -13 0 -2 -37 15 -51 8 -6 14 -17 14
-23 0 -6 -5 -4 -10 4 -5 8 -10 10 -10 4 0 -5 -9 -20 -21 -32 -11 -12 -18 -26
-15 -31 8 -13 -21 -34 -35 -25 -9 5 -7 11 7 22 18 14 18 14 0 8 -10 -3 -26 -1
-34 6 -10 8 -8 -1 7 -24 12 -21 19 -38 13 -38 -5 0 -9 -6 -9 -14 0 -9 6 -12
16 -8 14 5 14 3 2 -11 -7 -9 -17 -17 -21 -17 -13 0 -21 33 -11 43 11 11 3 37
-11 37 -6 0 -8 -7 -4 -15 8 -22 -3 -45 -20 -38 -8 3 -11 10 -8 17 3 6 -2 2
-10 -8 -16 -20 -16 -20 -16 0 0 14 -2 16 -9 5 -12 -18 -23 2 -14 26 3 10 3 15
-2 11 -14 -13 -35 13 -35 42 0 23 4 27 20 23 12 -3 20 -14 21 -27 0 -11 4 -30
9 -41 7 -15 8 -8 6 25 -2 25 0 55 5 67 6 17 5 21 -6 16 -8 -3 -15 -11 -15 -19
0 -16 -16 -19 -25 -4 -3 6 1 13 10 16 9 4 14 12 11 19 -2 7 4 21 15 31 10 9
19 23 19 31 0 7 9 21 20 30 11 10 20 26 20 36 0 10 5 28 11 39 18 33 77 88 91
85 7 -2 9 -2 4 1 -17 9 18 20 43 12 19 -5 31 -3 41 9 8 8 13 18 11 21 -6 8 97
57 159 76 30 9 59 20 64 24 13 13 68 -10 62 -26z m154 20 c0 -8 -5 -12 -10 -9
-6 4 -8 11 -5 16 9 14 15 11 15 -7z m541 -1 c0 -15 2 -15 9 2 8 19 9 19 9 1 1
-14 4 -16 14 -8 7 6 39 14 70 18 71 8 77 -10 17 -50 -22 -14 -40 -31 -40 -36
0 -6 9 -1 20 10 11 11 24 20 30 20 19 0 -3 -31 -32 -46 -17 -9 -27 -11 -24 -5
4 6 3 11 -3 11 -5 0 -14 -8 -20 -17 -5 -10 -13 -14 -18 -10 -4 5 2 16 15 25
18 14 20 20 10 31 -11 11 -10 13 2 9 18 -6 56 17 43 25 -5 3 -15 2 -23 -4 -19
-11 -43 -12 -36 0 4 5 -3 7 -14 4 -11 -3 -20 -13 -20 -23 0 -21 -51 -50 -88
-50 -24 0 -24 1 -9 18 10 10 14 21 11 24 -3 3 1 6 8 5 29 -1 48 3 48 12 0 4
-11 7 -24 6 -14 -2 -27 3 -30 11 -3 9 -1 12 4 9 6 -4 17 1 26 9 21 21 44 20
45 -1z m-2496 -11 c6 -4 21 -5 35 -4 22 2 19 -1 -15 -23 -23 -14 -33 -25 -23
-25 9 0 20 5 23 10 3 6 13 10 22 10 13 0 13 -2 2 -16 -26 -31 -48 -88 -37 -95
6 -4 9 -18 6 -31 -3 -14 3 -31 15 -43 20 -20 20 -20 13 5 -4 14 -10 36 -12 50
-5 24 -5 24 10 6 8 -10 13 -24 9 -30 -3 -6 4 0 17 12 15 16 29 22 44 18 11 -3
26 -6 33 -6 6 0 27 -14 45 -31 l33 -31 -37 4 c-65 7 -41 -9 31 -20 92 -16 151
-42 184 -83 33 -42 34 -43 75 -75 20 -17 31 -32 27 -41 -3 -10 -1 -13 9 -10 8
3 36 -9 63 -26 l48 -32 -65 -3 c-63 -3 -66 -2 -97 32 -18 20 -33 35 -34 33 -7
-22 -4 -34 8 -33 9 0 18 -5 21 -13 4 -11 -2 -12 -24 -6 -72 19 -250 23 -239 6
3 -6 -3 -14 -12 -20 -15 -9 -12 -10 17 -11 19 0 52 -5 73 -11 32 -9 36 -13 26
-25 -8 -10 -15 -11 -24 -4 -10 8 -15 8 -21 -1 -4 -8 -3 -9 4 -5 7 4 12 2 12
-4 0 -17 -54 -5 -95 20 -19 12 -35 28 -35 36 0 9 -5 12 -10 9 -21 -13 -121 56
-153 106 -18 27 -38 49 -45 49 -10 0 -12 8 -7 29 3 16 2 32 -4 35 -6 4 -10 57
-10 130 0 67 -3 135 -7 151 l-7 28 49 -8 c27 -4 54 -10 59 -13z m145 -13 c0
-6 -4 -7 -10 -4 -5 3 -10 11 -10 16 0 6 5 7 10 4 6 -3 10 -11 10 -16z m348 9
c34 -8 51 -16 48 -24 -3 -7 2 -10 15 -7 17 5 19 0 19 -46 0 -52 -8 -62 -29
-37 -10 11 -8 15 6 18 10 3 0 5 -22 5 -30 0 -35 -2 -20 -8 19 -7 19 -8 -2 -8
-25 -1 -30 18 -12 36 9 9 7 11 -8 7 -14 -4 -27 3 -42 22 -16 21 -21 23 -21 9
0 -12 -4 -15 -13 -9 -7 5 -4 1 8 -8 47 -39 55 -49 50 -58 -4 -6 2 -10 11 -10
10 0 35 -8 56 -17 28 -13 38 -23 38 -40 0 -30 -21 -29 -57 0 -15 13 -59 34
-97 48 -37 13 -71 30 -74 39 -3 8 -16 30 -29 49 -13 19 -23 38 -23 43 0 12
132 9 198 -4z m141 -10 c-1 -7 3 -26 9 -41 15 -36 15 -60 1 -51 -6 3 -4 -7 5
-24 17 -33 14 -42 -15 -35 -18 5 -20 13 -18 67 2 63 7 96 15 96 3 0 4 -6 3
-12z m1291 2 c0 -5 -4 -10 -9 -10 -4 0 -7 -19 -5 -42 1 -24 0 -34 -3 -23 -3
11 -9 24 -13 29 -5 5 -4 19 2 32 11 24 28 33 28 14z m330 3 c-8 -3 -23 -12
-33 -21 -19 -17 -32 -11 -24 11 3 8 20 14 39 14 18 1 26 -2 18 -4z m43 -18
c-12 -9 -19 -10 -22 -3 -4 12 20 29 32 21 4 -3 0 -11 -10 -18z m-448 -7 c5 4
5 -2 1 -13 -5 -11 -13 -36 -18 -55 -16 -55 -30 -62 -23 -10 4 25 7 57 8 73 2
22 4 25 13 12 6 -8 15 -11 19 -7z m408 -50 c-2 -38 -10 -69 -20 -80 -20 -22
-32 -15 -27 15 4 20 4 20 -5 2 -4 -11 -6 -24 -4 -28 11 -19 -8 -57 -28 -57
-11 0 -17 -5 -14 -10 4 -6 10 -8 15 -5 4 3 3 -11 -3 -30 -6 -19 -16 -35 -24
-35 -7 0 -13 -5 -13 -11 0 -13 -41 -48 -56 -49 -15 0 -25 38 -12 46 7 4 7 9 0
13 -7 4 -8 12 -1 21 7 13 10 13 18 1 6 -9 10 -10 16 -2 3 7 14 9 23 7 13 -4
17 1 18 18 2 22 -1 24 -22 16 -20 -8 -24 -6 -24 11 0 11 -4 17 -10 14 -6 -3
-7 1 -4 9 3 9 9 14 13 12 4 -3 12 9 18 25 10 26 10 29 -3 19 -8 -7 -14 -9 -15
-4 0 5 -7 -4 -14 -21 l-14 -30 3 35 c2 19 4 38 5 42 1 10 43 48 53 48 4 0 8
-6 8 -13 0 -8 7 -14 15 -14 8 0 12 4 9 9 -3 5 0 17 8 26 12 15 11 16 -4 3 -16
-12 -18 -11 -18 3 0 15 32 22 83 17 11 -2 17 5 17 18 0 12 4 21 9 21 5 0 7
-28 4 -62z m105 25 c-6 -17 -25 -38 -42 -48 l-31 -16 23 20 c13 11 23 24 24
28 1 12 30 54 34 50 2 -2 -2 -17 -8 -34z m-2215 -24 c-1 -15 0 -17 3 -6 6 19
24 22 40 8 5 -5 40 -20 79 -34 65 -22 70 -26 78 -61 11 -43 -4 -68 -37 -62
-11 3 -28 5 -37 5 -21 1 -99 69 -99 87 0 17 -17 19 -22 3 -4 -12 -88 20 -88
33 0 4 -7 5 -15 2 -25 -10 -17 12 10 26 16 9 21 16 14 21 -6 4 -9 11 -5 17 4
8 18 7 44 -2 30 -11 37 -18 35 -37z m2180 30 c-6 -6 -19 -9 -29 -6 -17 3 -16
5 6 14 28 12 39 8 23 -8z m201 -3 c-6 -15 -24 -23 -24 -11 0 8 24 34 28 30 1
-1 0 -10 -4 -19z m-1206 -11 c0 -30 -13 -41 -22 -19 -4 11 9 40 20 44 1 0 2
-11 2 -25z m656 -77 c-3 -4 -10 -8 -15 -8 -9 0 -9 16 2 100 1 8 5 -7 10 -34 4
-28 6 -53 3 -58z m-603 59 c-10 -9 -11 -8 -5 6 3 10 9 15 12 12 3 -3 0 -11 -7
-18z m491 6 c-6 -3 -10 -9 -7 -13 3 -5 1 -11 -5 -15 -5 -3 -10 0 -10 7 0 17
22 40 29 31 3 -3 0 -8 -7 -10z m848 2 c0 -14 -9 -17 -65 -20 -11 -1 -27 -5
-34 -9 -9 -6 -12 -5 -9 4 4 14 60 38 91 39 9 1 17 -6 17 -14z m-3430 -2 c0 -5
-5 -15 -10 -23 -8 -12 -10 -11 -10 8 0 12 5 22 10 22 6 0 10 -3 10 -7z m3014
-2 c3 -4 -4 -17 -16 -27 -20 -18 -21 -18 -15 -1 4 10 7 23 7 28 0 11 17 12 24
0z m178 -32 c-14 -12 -72 -19 -72 -8 0 6 5 7 12 3 8 -5 9 -2 5 9 -5 13 -1 17
14 17 11 0 17 -4 14 -10 -3 -5 -1 -10 4 -10 6 0 11 8 11 18 0 14 2 15 10 2 5
-8 6 -18 2 -21z m-3172 4 c0 -5 -5 -15 -10 -23 -8 -12 -10 -11 -10 8 0 12 5
22 10 22 6 0 10 -3 10 -7z m1538 0 c24 -2 41 -7 38 -10 -3 -3 2 -12 10 -21 13
-12 13 -16 2 -23 -20 -13 -31 -11 -25 6 4 8 2 17 -3 20 -6 4 -10 -4 -10 -16 0
-18 -2 -19 -15 -9 -13 11 -14 10 -9 -5 6 -15 3 -16 -24 -11 -18 3 -45 9 -62
12 -32 6 -41 23 -12 25 16 1 16 2 0 6 -19 5 -23 15 -11 26 7 7 54 7 121 0z
m490 -48 c-17 -19 -34 -32 -36 -30 -8 8 49 76 59 69 5 -3 -5 -21 -23 -39z
m560 38 c0 -5 3 -17 7 -27 6 -13 3 -23 -10 -32 -10 -7 -22 -11 -26 -8 -5 3 -9
-2 -9 -11 0 -11 5 -15 15 -11 9 3 15 0 15 -10 0 -11 -5 -12 -17 -6 -10 5 -23
7 -29 5 -14 -5 -15 75 -1 84 6 4 8 0 4 -9 -4 -11 1 -18 14 -21 12 -3 19 0 19
10 0 8 -5 11 -12 7 -7 -4 -4 2 6 14 20 23 27 27 24 15z m496 -8 c-4 -8 -10
-15 -15 -15 -5 0 -9 7 -9 15 0 8 7 15 15 15 9 0 12 -6 9 -15z m186 5 c0 -5 -9
-10 -21 -10 -11 0 -17 5 -14 10 3 6 13 10 21 10 8 0 14 -4 14 -10z m211 -3
c-6 -8 -8 -16 -5 -20 3 -3 -6 -13 -21 -23 -21 -13 -31 -15 -50 -6 -16 8 -25 8
-25 1 0 -5 7 -12 15 -15 8 -4 15 -10 15 -15 0 -6 -9 -5 -20 1 -15 8 -24 6 -40
-10 -11 -11 -24 -20 -29 -20 -5 0 -17 -3 -25 -6 -12 -5 -15 -2 -10 10 3 9 20
20 37 24 17 4 35 16 41 27 21 35 46 55 69 54 21 -2 21 -2 -2 -6 -19 -4 -21 -7
-10 -14 11 -7 10 -9 -4 -9 -10 0 -15 -4 -12 -10 9 -15 35 -12 35 4 0 8 7 17
16 20 8 3 12 10 9 16 -3 5 1 10 11 10 13 0 14 -3 5 -13z m-101 -7 c0 -5 -17
-9 -37 -9 l-38 2 35 7 c19 4 36 8 38 9 1 0 2 -3 2 -9z m481 -20 c-23 -20 -41
-26 -41 -14 0 11 34 33 50 33 10 0 8 -6 -9 -19z m-731 6 c0 -2 -7 -6 -15 -10
-8 -3 -15 -1 -15 4 0 6 7 10 15 10 8 0 15 -2 15 -4z m46 -11 c-36 -19 -45 -19
-20 0 10 8 26 14 34 15 8 0 2 -7 -14 -15z m-193 -10 c4 -8 1 -17 -5 -21 -7 -4
-8 -3 -4 4 4 7 2 12 -4 12 -6 0 -8 5 -5 10 8 14 12 13 18 -5z m262 -5 c-16
-11 -36 -20 -42 -20 -7 0 -13 -8 -12 -17 0 -11 3 -13 6 -5 2 6 15 12 28 12 12
0 25 7 29 15 3 8 13 15 21 15 10 0 13 5 9 12 -4 7 -3 8 4 4 7 -4 12 -14 12
-22 0 -8 -4 -13 -8 -10 -4 2 -14 1 -22 -5 -10 -5 -11 -9 -3 -9 19 0 4 -32 -30
-62 -32 -30 -56 -34 -88 -17 -16 8 -18 13 -8 25 6 8 17 14 23 14 7 0 12 9 13
20 2 26 0 26 -36 -11 -24 -23 -35 -28 -48 -21 -15 9 -14 12 9 33 15 13 55 33
90 45 81 28 90 28 53 4z m-2117 -5 c43 -18 84 -54 76 -66 -3 -5 5 -9 18 -9 13
0 30 -6 38 -13 16 -13 83 -197 72 -197 -4 0 -18 7 -31 16 -18 13 -20 18 -10
25 10 6 5 9 -14 9 -27 0 -57 23 -85 66 -7 10 -10 13 -7 7 10 -21 -1 -15 -44
25 -27 25 -46 55 -60 95 -22 65 -18 69 47 42z m1948 0 c-23 -17 -36 -19 -36
-6 0 11 18 19 40 20 11 0 10 -3 -4 -14z m-1727 -4 c8 -5 12 -18 8 -30 -3 -12
-1 -21 4 -21 5 0 9 -7 9 -15 0 -39 -51 2 -55 43 -3 33 8 39 34 23z m259 -22
c2 -19 1 -21 -7 -9 -6 8 -11 11 -11 6 0 -6 -5 -5 -11 1 -13 13 -2 36 14 30 7
-2 13 -14 15 -28z m-111 7 c4 -3 4 -8 2 -10 -6 -6 -79 -17 -79 -12 0 3 -3 12
-7 22 -6 15 -1 16 36 11 24 -3 45 -8 48 -11z m1186 -33 c-7 -3 -13 -13 -13
-24 0 -10 -6 -19 -14 -19 -25 0 -27 17 -5 45 17 20 24 24 33 14 8 -8 8 -13 -1
-16z m258 0 c-12 -20 -14 -14 -5 12 4 9 9 14 11 11 3 -2 0 -13 -6 -23z m-1336
-12 c35 -20 42 -48 22 -93 -22 -49 -47 -138 -54 -186 -4 -32 -10 -42 -22 -40
-18 4 -101 162 -101 194 0 24 26 40 33 21 2 -7 2 0 0 14 -2 15 4 35 15 50 18
21 22 22 37 9 17 -14 17 -13 7 7 -7 12 -12 29 -12 38 0 19 25 14 75 -14z
m-1601 -6 c16 -14 48 -30 70 -37 33 -9 36 -13 18 -16 -29 -5 -84 14 -118 40
-31 25 -83 35 -65 14 6 -7 8 -16 4 -20 -4 -4 0 -4 9 -1 15 6 114 -42 106 -51
-2 -1 -32 7 -68 18 -90 29 -126 62 -77 71 59 11 93 6 121 -18z m1516 20 c0 -5
-46 -76 -62 -95 -11 -12 -13 -12 -16 4 -6 27 19 77 42 86 25 10 36 12 36 5z
m-84 -42 c-11 -11 -19 6 -11 24 8 17 8 17 12 0 3 -10 2 -21 -1 -24z m960 23
c3 -7 -5 -32 -17 -55 -17 -33 -24 -39 -35 -30 -8 6 -14 19 -14 28 -1 14 -2 14
-11 -1 -7 -12 -6 -24 1 -37 13 -25 13 -31 -1 -31 -5 0 -8 4 -5 9 3 5 -1 12
-10 15 -8 3 -12 11 -8 17 4 7 3 9 -3 6 -6 -4 -14 0 -17 9 -9 24 1 29 20 13 15
-12 16 -11 9 10 -5 16 -4 21 4 17 6 -4 11 -1 11 6 0 8 12 19 28 25 37 15 42
15 48 -1z m154 -1 c0 -8 -7 -15 -15 -15 -8 0 -15 7 -15 15 0 8 7 15 15 15 8 0
15 -7 15 -15z m-853 -27 c-3 -7 -5 -2 -5 12 0 14 2 19 5 13 2 -7 2 -19 0 -25z
m1343 1 c-6 -10 -15 -19 -20 -19 -5 0 -16 -8 -26 -17 -17 -17 -17 -16 -10 12
4 17 8 30 9 31 43 26 63 24 47 -7z m-610 -10 c0 -4 -8 -10 -17 -14 -14 -5 -15
-3 -6 6 6 6 9 19 6 28 -4 14 -3 14 6 1 6 -8 11 -18 11 -21z m111 -7 c10 -62 9
-74 -6 -62 -11 9 -13 16 -5 24 5 5 10 14 10 20 0 5 -3 6 -7 3 -3 -4 -16 1 -27
10 -21 18 -21 18 -3 -3 19 -23 22 -34 7 -34 -5 0 -14 9 -20 21 -16 28 4 53 31
38 10 -5 20 -13 20 -17z m565 16 c6 -7 -14 -50 -29 -59 -5 -4 -23 -5 -38 -2
-17 2 -29 0 -29 -6 0 -6 -8 -11 -17 -11 -11 0 -14 3 -7 8 6 4 13 15 17 25 3 9
13 17 21 17 9 0 20 9 26 20 10 18 41 23 56 8z m-536 -8 c0 -5 -4 -10 -10 -10
-5 0 -10 5 -10 10 0 6 5 10 10 10 6 0 10 -4 10 -10z m70 -15 c7 -8 10 -22 6
-30 -3 -9 -2 -13 4 -10 6 3 10 1 10 -4 0 -6 -7 -11 -15 -11 -8 0 -15 -7 -15
-16 0 -8 -6 -21 -13 -29 -11 -11 -14 -8 -15 18 -1 46 8 97 17 97 5 0 14 -7 21
-15z m500 -5 c0 -13 -7 -20 -20 -20 -18 0 -19 3 -10 20 6 11 15 20 20 20 6 0
10 -9 10 -20z m-3162 -44 c-26 -8 -33 -6 -49 13 -30 37 -22 41 30 18 l49 -22
-30 -9z m3202 38 c0 -2 -7 -4 -15 -4 -8 0 -15 4 -15 10 0 5 7 7 15 4 8 -4 15
-8 15 -10z m240 12 c0 -2 -7 -7 -16 -10 -8 -3 -12 -2 -9 4 6 10 25 14 25 6z
m-2046 -32 c19 -27 18 -75 0 -81 -12 -4 -44 65 -44 92 0 24 26 17 44 -11z
m1105 2 c11 -10 17 -25 14 -34 -4 -14 -3 -15 6 -2 11 16 10 17 39 -30 22 -37
19 -52 -10 -63 -12 -4 -19 2 -26 21 -9 25 -10 23 -9 -15 1 -23 4 -40 8 -38 7
5 29 -39 29 -57 0 -6 -13 -8 -37 -3 -48 9 -50 11 -28 35 10 11 13 20 7 20 -7
0 -12 -4 -12 -8 0 -8 -58 -32 -78 -32 -7 0 -12 5 -12 11 0 7 9 9 23 6 21 -6
21 -6 -3 13 -19 15 -21 20 -8 20 9 0 26 12 37 26 12 15 25 23 32 18 8 -5 9 -3
5 5 -5 7 0 22 10 34 17 20 16 19 -8 -2 -27 -24 -54 -21 -44 6 3 8 1 11 -4 8
-11 -7 -13 6 -4 29 3 9 11 16 16 16 6 0 7 -7 4 -16 -3 -8 -2 -12 4 -9 13 8 13
35 0 35 -5 0 -7 6 -4 14 7 18 28 15 53 -8z m231 14 c0 -5 -4 -10 -10 -10 -5 0
-10 5 -10 10 0 6 5 10 10 10 6 0 10 -4 10 -10z m880 0 c0 -14 -24 -27 -58 -32
-38 -5 -52 8 -27 26 19 13 85 19 85 6z m-1850 -30 c0 -15 -5 -12 -26 11 -19
22 -19 22 4 10 12 -6 22 -16 22 -21z m-1667 13 c-7 -2 -19 -2 -25 0 -7 3 -2 5
12 5 14 0 19 -2 13 -5z m77 -3 c13 -9 13 -10 0 -10 -8 0 -22 5 -30 10 -13 9
-13 10 0 10 8 0 22 -5 30 -10z m3129 -3 c27 -7 22 -25 -8 -32 -17 -4 -33 -11
-36 -16 -4 -5 -17 -9 -31 -9 -14 0 -32 -7 -41 -15 -8 -9 -18 -13 -21 -10 -4 3
-2 9 4 13 6 4 13 13 16 21 2 8 20 20 39 27 28 10 30 13 11 13 -14 1 -21 5 -16
12 6 10 30 8 83 -4z m-1043 -19 c-1 -13 -9 -22 -23 -24 -27 -4 -38 22 -15 35
27 16 39 13 38 -11z m42 10 c25 -25 1 -71 -28 -53 -7 4 -7 40 -1 63 2 6 18 1
29 -10z m-593 -18 c3 -11 11 -20 18 -20 8 0 8 3 -1 12 -7 7 -12 17 -12 23 0 5
7 2 15 -8 7 -11 11 -25 8 -33 -3 -8 0 -14 6 -14 6 0 8 -7 5 -15 -5 -11 -2 -13
10 -9 9 3 16 1 16 -5 0 -6 -7 -11 -15 -11 -8 0 -15 -7 -15 -15 0 -8 -10 -20
-22 -26 -13 -7 -28 -17 -35 -23 -49 -44 -53 -45 -53 -12 0 22 36 150 47 169 8
13 22 7 28 -13z m1009 -4 c-1 -9 2 -16 7 -16 5 0 9 -9 9 -20 0 -13 -11 -25
-32 -34 -18 -7 -35 -12 -36 -10 -9 7 11 44 20 38 6 -4 14 -1 18 6 10 16 1 42
-11 34 -5 -3 -6 2 -3 11 8 20 29 13 28 -9z m266 17 c0 -5 -4 -14 -9 -21 -6
-10 -10 -9 -14 7 -3 14 0 21 9 21 8 0 14 -3 14 -7z m524 -4 c-5 -8 3 -10 26
-7 29 4 31 4 15 -8 -16 -12 -54 -10 -78 3 -13 7 3 23 24 23 13 0 18 -4 13 -11z
m-570 -33 c-4 -17 -13 -26 -25 -26 -17 0 -18 3 -8 23 12 22 31 39 37 33 1 -2
0 -15 -4 -30z m154 17 c-2 -12 -13 -18 -33 -19 -17 -1 -38 -5 -48 -9 -10 -4
-21 -4 -25 0 -11 10 31 37 50 31 10 -2 21 0 24 5 10 16 36 10 32 -8z m72 -3
c-12 -23 -60 -28 -60 -7 0 20 10 27 42 27 26 0 28 -2 18 -20z m-2475 -58 c-10
-10 -55 33 -55 52 1 18 4 17 29 -14 16 -19 28 -36 26 -38z m1113 56 c14 -14
16 -28 2 -28 -5 0 -14 9 -20 20 -12 22 -1 27 18 8z m603 -45 c-17 -24 -31 -30
-31 -13 0 6 5 10 11 10 8 0 8 4 0 14 -9 11 -8 18 6 31 16 17 17 16 23 -1 4
-11 0 -28 -9 -41z m1009 32 c0 -8 -6 -15 -14 -15 -8 0 -17 -6 -19 -12 -4 -10
-8 -9 -16 2 -9 13 -11 12 -11 -3 0 -10 -5 -15 -10 -12 -6 4 -8 11 -5 16 4 5
-1 9 -10 9 -9 0 -13 -4 -10 -10 4 -6 -7 -10 -27 -10 l-33 1 38 19 c66 33 117
39 117 15z m59 -2 c6 -10 11 -12 11 -5 0 6 5 12 11 12 5 0 8 -4 5 -9 -4 -5 3
-7 14 -4 15 4 19 2 14 -10 -4 -11 -21 -15 -60 -16 l-54 0 16 24 c19 30 29 31
43 8z m-3006 -35 c20 -10 37 -22 37 -27 0 -11 -51 -2 -69 13 -7 6 -30 18 -50
28 l-36 17 40 -6 c22 -3 57 -14 78 -25z m1760 21 c-8 -8 -16 -8 -30 0 -16 9
-14 10 12 11 21 0 26 -3 18 -11z m857 -14 c0 -11 -12 -15 -47 -15 l-48 1 30
14 c40 18 65 18 65 0z m30 0 c0 -8 -4 -15 -10 -15 -5 0 -10 7 -10 15 0 8 5 15
10 15 6 0 10 -7 10 -15z m30 11 c0 -3 -4 -8 -10 -11 -5 -3 -10 -1 -10 4 0 6 5
11 10 11 6 0 10 -2 10 -4z m668 -3 c-10 -2 -26 -2 -35 0 -10 3 -2 5 17 5 19 0
27 -2 18 -5z m-1372 -24 c7 -12 -22 -46 -32 -37 -8 9 5 48 16 48 5 0 12 -5 16
-11z m414 2 c0 -5 -16 -21 -35 -35 -35 -27 -44 -22 -24 15 6 12 17 18 25 15 8
-3 14 -1 14 4 0 6 5 10 10 10 6 0 10 -4 10 -9z m710 0 c0 -5 -7 -11 -14 -14
-10 -4 -13 -1 -9 9 6 15 23 19 23 5z m210 -11 c-8 -6 -22 -7 -30 -4 -12 4 -12
2 -3 -7 9 -9 20 -6 47 10 20 13 40 20 46 16 6 -3 28 -7 50 -7 56 -1 49 -28
-12 -43 -16 -4 -25 -12 -21 -18 3 -5 1 -7 -5 -3 -13 8 -126 -21 -130 -33 -2
-5 -18 -7 -36 -4 -21 3 -38 0 -47 -9 -39 -39 -101 -69 -137 -66 -25 2 -36 7
-34 17 2 9 -3 11 -15 6 -10 -4 -25 -8 -33 -9 -9 -1 -21 -6 -29 -10 -9 -6 -12
-5 -9 5 3 8 13 13 22 13 9 -1 16 4 16 11 0 7 16 28 35 47 26 24 51 36 93 44
31 7 47 12 34 13 -71 3 53 39 153 44 57 2 66 0 45 -13z m-1911 -17 c2 -1 -6
-18 -18 -38 -12 -20 -19 -40 -16 -45 3 -5 0 -20 -6 -34 -9 -20 -19 -25 -44
-24 -17 1 -38 -3 -45 -7 -14 -9 -11 18 10 94 15 55 25 67 43 52 13 -10 15 -9
10 8 -5 19 -3 19 28 8 19 -6 36 -13 38 -14z m415 12 c-4 -8 -11 -15 -16 -15
-6 0 -5 6 2 15 7 8 14 15 16 15 2 0 1 -7 -2 -15z m99 -18 c-3 -4 -11 -3 -19 4
-7 6 -11 15 -8 20 3 5 11 3 18 -4 8 -6 12 -16 9 -20z m905 16 c22 -5 28 -21
15 -39 -5 -5 -1 -2 7 7 15 15 50 22 50 10 -1 -17 -19 -33 -31 -26 -9 6 -11 4
-6 -8 3 -9 2 -19 -3 -22 -6 -4 -10 -12 -10 -18 0 -7 5 -4 11 6 19 32 29 17 13
-20 -26 -59 -31 -68 -43 -65 -6 1 -11 -1 -10 -5 1 -5 -2 -18 -6 -31 -6 -17
-13 -22 -26 -19 -11 3 -19 1 -19 -4 0 -5 5 -9 10 -9 6 0 10 -7 10 -16 0 -15
-10 -16 -72 -12 -42 3 -62 2 -48 -2 14 -4 40 -8 58 -9 17 -1 32 -4 32 -7 0
-16 -23 -44 -35 -44 -8 0 -15 -5 -15 -10 0 -6 -12 -24 -27 -41 -24 -26 -32
-29 -61 -24 -40 7 -122 51 -140 74 -7 9 -15 15 -17 14 -3 -2 -22 -3 -42 -3
l-38 1 50 26 c36 19 73 28 130 33 80 6 80 6 33 14 -30 5 -59 4 -83 -4 -20 -7
-38 -10 -41 -8 -2 3 15 25 39 49 41 43 88 61 102 39 3 -6 22 -10 41 -10 19 0
33 -4 30 -8 -3 -4 18 -7 45 -6 49 1 90 24 88 48 0 6 -3 6 -6 -1 -2 -7 -11 -13
-19 -13 -9 0 -12 -5 -8 -11 5 -8 -10 -10 -55 -6 -34 2 -65 8 -68 11 -4 3 0 6
7 6 7 0 11 3 8 6 -3 3 -15 0 -27 -8 -16 -10 -23 -10 -33 0 -20 20 -67 14 -96
-13 -19 -18 -28 -21 -35 -12 -5 8 -7 3 -5 -13 2 -16 -2 -24 -9 -23 -7 2 -13
-5 -13 -14 0 -13 -8 -10 -32 15 l-33 31 -12 -25 c-10 -22 -10 -24 3 -14 9 9
14 9 14 2 0 -6 7 -9 15 -6 17 7 32 -23 19 -36 -5 -5 -18 -10 -29 -12 -11 -1
-29 -11 -39 -20 -11 -10 -21 -17 -22 -15 -7 6 9 46 16 42 4 -2 5 6 3 19 -6 29
16 73 53 106 27 25 27 25 21 2 -3 -12 -1 -20 4 -16 5 3 9 13 9 23 0 25 216
131 268 131 25 0 33 3 23 9 -11 7 -9 10 10 14 13 2 31 2 39 -1 8 -2 25 -7 38
-9z m222 11 c0 -12 -45 -43 -62 -44 -10 0 -18 -3 -18 -7 0 -10 -81 -95 -86
-90 -7 7 34 111 45 115 14 5 14 -23 1 -49 -6 -10 -8 -19 -5 -19 3 0 13 16 21
36 11 27 19 34 34 29 13 -4 22 1 30 15 10 18 40 29 40 14z m576 -10 c-3 -17
-64 -64 -83 -64 -7 0 -13 -4 -13 -8 0 -5 -16 -13 -35 -19 -44 -14 -36 1 13 24
34 16 71 43 58 43 -3 0 -31 -12 -62 -26 -31 -14 -58 -23 -61 -21 -10 11 19 47
42 53 14 3 25 12 25 20 0 9 16 13 59 12 44 -1 58 -4 57 -14z m-2616 -61 c0
-15 -2 -15 -24 -7 -16 6 -22 54 -9 68 8 8 32 -38 33 -61z m717 28 c2 -18 -1
-30 -6 -26 -5 3 -15 -11 -21 -30 -6 -19 -16 -33 -21 -29 -5 3 -6 10 -3 16 4 6
2 8 -3 5 -18 -12 -23 36 -6 55 9 10 12 18 8 18 -5 0 0 7 11 15 27 20 38 14 41
-24z m1261 32 c-10 -2 -28 -2 -40 0 -13 2 -5 4 17 4 22 1 32 -1 23 -4z m692 3
c0 -2 -9 -6 -20 -9 -11 -3 -20 -1 -20 4 0 5 9 9 20 9 11 0 20 -2 20 -4z
m-3550 -16 c0 -5 -2 -10 -4 -10 -3 0 -8 5 -11 10 -3 6 -1 10 4 10 6 0 11 -4
11 -10z m2408 1 c6 0 12 -8 12 -16 0 -13 -80 -56 -172 -93 -16 -7 -28 -19 -28
-27 0 -14 -58 -135 -65 -135 -5 0 15 86 29 125 8 22 15 48 16 57 0 20 75 62
92 52 6 -4 8 -3 5 3 -8 13 47 41 76 38 12 -1 28 -3 35 -4z m-2274 -22 c37 -22
70 -64 61 -79 -3 -5 4 -14 15 -20 11 -6 17 -16 14 -22 -5 -7 -2 -8 5 -4 8 5
26 -7 48 -34 22 -25 39 -38 45 -32 12 12 85 -25 99 -50 10 -18 9 -18 -28 -3
-21 9 -44 23 -51 33 -9 12 -15 14 -20 5 -6 -9 -41 4 -127 46 -66 32 -125 64
-130 72 -6 8 -12 27 -14 42 -2 25 0 28 20 25 17 -2 24 2 26 17 1 11 0 14 -3 8
-8 -18 -44 -16 -44 2 0 22 42 19 84 -6z m1529 6 c4 -8 1 -17 -5 -21 -7 -5 -8
-2 -3 7 5 8 5 11 0 7 -4 -4 -9 -26 -11 -48 -5 -68 -41 -113 -38 -47 2 34 18
83 36 104 13 16 15 16 21 -2z m101 6 c3 -4 -3 -16 -14 -26 -19 -17 -19 -17 -7
9 14 29 14 29 21 17z m236 -16 c0 -14 0 -28 1 -32 0 -4 -4 -9 -8 -10 -13 -5
-37 43 -29 56 13 21 36 12 36 -14z m470 15 c-20 -13 -40 -13 -40 0 0 6 12 10
28 10 21 0 24 -2 12 -10z m-320 -8 c0 -9 -62 -34 -68 -27 -3 3 41 26 66 34 1
1 2 -3 2 -7z m-2162 -22 c10 -16 10 -20 -1 -20 -8 0 -22 9 -32 20 -18 19 -17
20 1 20 11 0 25 -9 32 -20z m1157 -22 c-11 -57 -16 -68 -26 -63 -5 4 -9 -1 -9
-9 0 -20 -30 -21 -55 -2 -21 15 -26 9 68 87 29 24 30 24 22 -13z m652 17 c0
-8 -9 -15 -19 -15 -20 0 -24 16 -5 23 20 9 24 8 24 -8z m346 -35 c-4 -4 -18
-11 -30 -15 -34 -10 -30 21 5 39 24 13 27 13 30 -1 2 -8 0 -19 -5 -23z m1117
24 c0 -2 -7 -4 -15 -4 -8 0 -15 4 -15 10 0 5 7 7 15 4 8 -4 15 -8 15 -10z m40
6 c0 -5 -4 -10 -10 -10 -5 0 -10 5 -10 10 0 6 5 10 10 10 6 0 10 -4 10 -10z
m-2770 -3 c-3 -3 -22 -9 -42 -15 -27 -7 -40 -7 -47 1 -7 9 4 13 42 15 28 2 49
1 47 -1z m2690 -8 c0 -6 7 -17 15 -25 12 -12 15 -12 16 -2 0 9 2 9 5 1 3 -7
12 -9 20 -6 13 5 13 7 2 14 -9 6 -9 9 -1 9 18 0 25 -18 11 -27 -7 -4 -28 -8
-47 -9 -18 -1 -37 -8 -42 -15 -11 -19 -2 -24 16 -9 9 7 18 10 21 7 8 -8 -35
-29 -46 -22 -6 3 -19 0 -30 -8 -21 -15 -70 -12 -70 5 0 5 -9 4 -21 -2 -11 -6
-27 -10 -36 -8 -13 3 -13 6 3 25 11 12 30 24 44 28 20 5 22 4 10 -5 -12 -10
-12 -11 5 -5 11 5 39 15 63 23 23 8 42 21 42 28 0 8 5 14 10 14 6 0 10 -5 10
-11z m-2986 -24 c16 -14 33 -25 38 -25 5 0 6 -4 3 -10 -3 -5 2 -10 12 -10 19
0 108 -78 100 -87 -6 -5 -139 81 -156 101 -7 9 -18 13 -24 9 -6 -3 -7 -1 -3 6
4 6 2 18 -4 26 -20 24 2 17 34 -10z m361 5 c0 -1 20 -3 45 -4 63 -3 131 -17
125 -26 -2 -4 7 -5 21 -2 19 3 33 -4 59 -31 l35 -36 -28 -4 c-22 -3 -21 -4 9
-6 20 0 47 -10 60 -20 l24 -19 -39 -16 c-39 -16 -79 -28 -153 -44 -31 -7 -43
-6 -46 3 -6 15 -107 20 -107 4 0 -7 12 -8 33 -4 20 4 27 3 19 -3 -10 -7 -9
-12 4 -23 15 -12 17 -12 9 0 -6 11 -4 13 9 8 10 -4 25 -7 34 -7 9 -1 -5 -9
-31 -20 -46 -18 -77 -18 -77 0 0 5 8 11 18 13 13 4 12 5 -4 6 -23 1 -39 26
-28 43 3 5 -3 12 -14 15 -12 3 -29 24 -41 52 -12 25 -27 57 -34 70 -16 31 -37
40 -30 12 3 -12 10 -18 16 -14 5 3 7 1 3 -5 -3 -6 -2 -22 4 -37 11 -29 2 -27
-37 8 -13 11 -23 16 -23 11 0 -6 14 -20 31 -33 17 -12 28 -29 25 -36 -6 -16
21 -55 38 -55 13 0 41 -49 32 -57 -8 -9 -45 17 -66 47 -12 16 -18 30 -14 30 4
0 -3 9 -16 20 -15 13 -18 20 -9 21 10 0 10 2 2 6 -14 5 -73 59 -73 66 0 2 23
18 51 36 40 24 59 30 80 26 16 -4 29 -10 29 -14 0 -4 7 -8 15 -8 8 0 15 4 15
9 0 4 -4 8 -10 8 -5 0 -10 4 -10 8 0 5 10 8 23 6 12 -1 22 -3 22 -4z m762 -67
c-3 -2 -16 -1 -31 3 -28 7 -32 23 -15 56 10 18 12 17 30 -17 11 -21 18 -39 16
-42z m433 52 c0 -7 -6 -18 -14 -24 -12 -10 -17 -8 -26 9 -6 11 -8 24 -5 29 7
13 45 1 45 -14z m-100 -15 c-6 -11 -15 -20 -21 -20 -6 0 -6 7 1 20 6 11 15 20
21 20 6 0 6 -7 -1 -20z m-246 -5 c19 -15 19 -15 -1 -15 -11 0 -23 7 -27 15 -7
19 3 19 28 0z m147 -10 c13 9 11 -8 -4 -30 -18 -24 -32 -4 -21 33 5 21 8 23
11 9 3 -9 9 -15 14 -12z m279 16 c0 -5 -9 -11 -20 -14 -20 -5 -26 3 -13 16 9
10 33 8 33 -2z m-129 -16 c0 -6 -10 -12 -23 -13 -19 -4 -20 -2 -9 12 15 17 33
18 32 1z m229 5 c0 -5 -4 -10 -10 -10 -5 0 -10 5 -10 10 0 6 5 10 10 10 6 0
10 -4 10 -10z m-436 -16 c11 -30 7 -54 -9 -48 -11 5 -14 1 -9 -12 5 -18 5 -18
-10 0 -27 33 -17 63 12 34 9 -9 12 -8 12 5 0 9 -4 17 -10 17 -5 0 -10 5 -10
10 0 16 17 12 24 -6z m376 -16 c0 -5 -7 -8 -16 -8 -9 0 -32 -10 -51 -21 -33
-21 -35 -21 -49 -3 -9 12 -12 14 -9 4 2 -8 -3 -25 -13 -38 l-18 -23 4 35 c4
33 24 52 43 40 5 -3 9 0 9 5 0 6 8 11 18 11 9 0 28 6 42 13 24 13 39 6 40 -15z
m219 -14 c-12 -28 -13 -28 -17 -6 -2 13 2 30 9 39 18 21 22 2 8 -33z m-109 21
c0 -9 -6 -12 -15 -9 -8 4 -15 10 -15 15 0 5 7 9 15 9 8 0 15 -7 15 -15z m-552
-14 c3 -10 0 -12 -12 -8 -10 4 -22 7 -27 7 -5 0 -9 4 -9 9 0 14 43 7 48 -8z
m1537 9 c3 -6 -4 -10 -17 -10 -18 0 -20 2 -8 10 19 12 18 12 25 0z m-113 -26
c-31 -21 -85 -23 -90 -2 -4 19 22 25 76 19 31 -3 32 -4 14 -17z m-2714 -40
c59 -31 130 -64 157 -73 29 -10 49 -22 47 -30 -1 -7 1 -10 6 -7 4 2 30 -13 57
-35 63 -50 106 -73 98 -53 -3 8 -13 14 -22 14 -10 0 -28 11 -42 26 -21 22 -21
24 -4 18 11 -4 34 -17 50 -28 17 -12 59 -37 95 -55 74 -38 91 -51 69 -51 -7
-1 4 -7 26 -15 22 -8 48 -26 58 -40 10 -14 25 -25 33 -25 8 0 42 -18 75 -40
l59 -41 0 -55 c0 -46 -3 -55 -15 -50 -11 4 -19 -3 -25 -20 -7 -18 -15 -24 -26
-20 -9 3 -81 6 -160 6 l-144 0 0 33 c0 18 6 39 12 45 10 10 10 15 -2 22 -9 5
-15 31 -18 73 l-4 65 -42 16 c-29 11 -75 16 -153 16 l-111 0 -5 -92 c-3 -51
-5 -111 -4 -133 l2 -40 -81 -3 -81 -3 -7 183 c-3 101 -9 243 -13 316 -3 72 -3
132 1 132 3 0 54 -25 114 -56z m1790 26 l23 -30 -33 -55 c-25 -41 -39 -55 -58
-56 -24 -2 -24 -2 -2 -6 23 -5 31 -33 10 -33 -14 0 -16 -16 -19 -138 -1 -58
-4 -72 -15 -68 -16 6 -16 2 -14 -117 1 -65 -2 -84 -22 -115 -17 -28 -24 -33
-26 -19 -4 21 -22 23 -22 1 0 -9 -9 -18 -20 -21 -22 -6 -25 -20 -10 -43 8 -13
10 -13 10 2 0 9 4 19 9 23 8 4 9 -18 2 -56 -2 -14 -33 -19 -52 -9 -22 13 -26
50 -4 50 18 0 20 16 3 26 -7 4 -8 3 -4 -5 6 -8 0 -10 -18 -5 -25 6 -26 5 -20
-26 6 -28 4 -32 -12 -28 -14 3 -19 12 -19 36 0 17 -3 32 -7 32 -15 0 -98 55
-103 69 -3 8 2 52 12 99 17 81 19 85 53 101 19 9 37 19 38 24 2 4 13 7 24 7
12 0 19 3 15 6 -3 4 5 23 20 43 l25 36 -28 -33 c-16 -18 -38 -34 -47 -36 -10
-1 -22 -7 -25 -13 -4 -6 -20 -15 -35 -18 -22 -6 -27 -4 -27 12 0 27 30 65 46
59 8 -3 11 0 8 8 -7 18 58 70 113 91 38 15 47 15 55 4 8 -12 9 -11 5 1 -5 20
51 44 69 30 9 -9 11 -7 7 9 -4 17 -9 18 -32 9 -14 -5 -34 -11 -43 -13 -29 -6
-90 -37 -138 -69 -25 -17 -48 -30 -52 -28 -5 1 -8 -4 -8 -12 0 -7 -6 -19 -13
-25 -22 -18 -6 46 22 95 23 38 126 118 143 112 4 -2 15 7 23 19 26 36 129 100
165 102 3 0 15 -13 28 -29z m-795 9 c-8 -8 -16 -8 -30 0 -16 9 -14 10 12 11
21 0 26 -3 18 -11z m197 1 c0 -5 -4 -10 -10 -10 -5 0 -10 5 -10 10 0 6 5 10
10 10 6 0 10 -4 10 -10z m1420 6 c0 -2 3 -11 6 -20 4 -11 -4 -17 -31 -22 -46
-8 -56 2 -25 26 23 18 50 26 50 16z m220 -7 c0 -5 8 -6 18 -2 9 3 14 3 11 -1
-10 -11 -70 -17 -64 -6 4 6 1 10 -4 10 -6 0 -11 -4 -11 -9 0 -6 -9 -9 -19 -8
-13 1 -17 5 -11 12 11 13 80 16 80 4z m93 4 c-7 -2 -19 -2 -25 0 -7 3 -2 5 12
5 14 0 19 -2 13 -5z m-1768 -40 c12 -17 13 -28 6 -37 -13 -15 -4 -26 19 -26
28 0 37 -20 44 -94 5 -58 4 -67 -9 -63 -8 4 -14 3 -14 -1 3 -20 -3 -23 -17
-11 -15 12 -16 11 -10 -9 6 -18 0 -31 -32 -62 -24 -24 -34 -40 -26 -42 9 -2
10 -8 5 -17 -7 -11 -14 -7 -29 18 -21 34 -35 146 -32 251 3 73 8 90 28 90 15
0 15 2 2 10 -12 8 -13 11 -1 19 20 13 48 2 66 -26z m52 15 c-3 -8 -6 -5 -6 6
-1 11 2 17 5 13 3 -3 4 -12 1 -19z m266 -13 c-20 -41 -26 -40 -17 3 4 18 13
32 20 32 11 0 10 -7 -3 -35z m97 22 c0 -7 -15 -28 -33 -45 -30 -29 -35 -31
-47 -17 -10 12 -10 21 0 45 10 25 18 30 46 30 21 0 34 -5 34 -13z m-1420 -1
c0 -3 -4 -8 -10 -11 -5 -3 -10 -1 -10 4 0 6 5 11 10 11 6 0 10 -2 10 -4z
m2772 -8 c-9 -9 -15 -9 -24 0 -9 9 -7 12 12 12 19 0 21 -3 12 -12z m-2012 -18
c39 0 78 -19 85 -41 4 -10 3 -39 -1 -64 -5 -38 -9 -44 -21 -34 -19 17 -103
143 -102 155 0 5 3 3 6 -3 2 -7 18 -13 33 -13z m519 -26 c-5 -25 -12 -50 -15
-56 -4 -7 -2 -8 4 -4 7 4 12 3 12 -3 0 -17 -17 -22 -28 -8 -10 12 -12 91 -3
81 2 -2 10 5 18 16 20 29 21 26 12 -26z m-219 4 c0 -6 -6 -5 -15 2 -8 7 -15
14 -15 16 0 2 7 1 15 -2 8 -4 15 -11 15 -16z m1534 10 c-4 -5 -15 -8 -25 -5
-11 3 -19 1 -19 -4 0 -5 -12 -9 -27 -9 -26 1 -27 2 -10 14 21 16 90 19 81 4z
m-1404 -11 c16 4 20 0 20 -20 0 -14 -6 -28 -12 -31 -10 -5 -10 -7 0 -12 6 -3
12 -17 12 -31 0 -20 -6 -13 -30 32 -16 31 -27 62 -23 68 5 8 8 8 10 0 2 -6 13
-9 23 -6z m1264 -2 c-22 -16 -50 -19 -58 -6 -8 12 11 19 48 20 28 1 29 0 10
-14z m609 8 c-7 -2 -19 -2 -25 0 -7 3 -2 5 12 5 14 0 19 -2 13 -5z m-2319
-147 c30 -50 63 -111 74 -136 43 -97 55 -130 49 -136 -3 -4 0 -13 8 -21 19
-19 19 -29 -1 -37 -13 -5 -15 -2 -11 14 3 11 1 20 -4 20 -5 0 -9 -7 -9 -15 0
-8 -4 -15 -9 -15 -5 0 -14 7 -21 15 -7 8 -19 15 -26 15 -8 0 -23 9 -34 20 -11
11 -22 20 -25 20 -3 0 -9 0 -14 0 -13 0 -52 38 -74 70 -23 34 -23 73 1 66 14
-5 17 1 18 27 1 29 0 30 -9 10 -15 -34 -27 -28 -27 13 0 33 2 35 17 23 15 -13
15 -12 1 11 -22 35 -22 90 0 91 12 0 10 3 -6 10 -13 5 -35 6 -48 3 -23 -6 -23
-7 -7 -20 14 -10 15 -13 4 -14 -12 0 -12 -3 -3 -12 8 -8 12 -46 11 -107 0 -63
-3 -89 -9 -76 -5 11 -9 14 -9 7 -1 -9 -13 -4 -35 15 -18 15 -31 32 -28 37 3 5
0 6 -7 2 -7 -4 -44 12 -87 40 -57 35 -72 49 -62 56 9 7 6 7 -9 3 -12 -3 -24
-2 -27 4 -12 19 6 38 47 51 23 6 56 18 72 24 17 7 52 18 80 25 27 7 53 18 57
24 4 7 8 9 8 5 0 -4 10 -3 23 1 31 12 63 -20 131 -133z m2441 134 c-27 -12
-43 -12 -25 0 8 5 22 9 30 9 10 0 8 -3 -5 -9z m-2140 -10 c3 -5 -1 -10 -10
-10 -9 0 -13 5 -10 10 3 6 8 10 10 10 2 0 7 -4 10 -10z m681 -29 c9 -33 8 -43
-5 -55 -14 -15 -13 -16 6 -16 30 0 37 -16 23 -51 -12 -28 -33 -38 -44 -20 -6
9 -46 22 -46 16 0 -2 16 -12 35 -21 30 -14 34 -20 29 -43 -13 -50 -33 -78 -61
-84 -47 -10 -70 39 -35 71 9 10 13 14 8 10 -30 -24 -34 14 -10 85 14 42 19 47
47 48 30 2 30 2 5 6 -20 3 -25 8 -21 21 9 22 45 72 53 72 3 0 11 -18 16 -39z
m-583 -10 l26 -38 -35 -52 c-19 -28 -36 -51 -38 -51 -2 0 -4 30 -5 67 0 36 -3
68 -6 71 -6 6 14 42 24 42 5 0 20 -17 34 -39z m197 30 c0 -5 -7 -11 -14 -14
-10 -4 -13 -1 -9 9 6 15 23 19 23 5z m637 -67 c19 -2 62 -17 96 -33 34 -16 70
-32 80 -35 15 -5 16 -8 5 -26 -7 -11 -19 -18 -26 -15 -7 3 -10 0 -7 -5 3 -6 0
-13 -8 -16 -8 -3 -17 -14 -20 -25 -3 -10 -11 -19 -19 -19 -11 0 -11 2 0 9 10
6 8 10 -8 14 -12 3 -19 10 -15 16 3 6 0 11 -8 11 -8 0 -25 9 -38 20 l-24 19
40 2 40 2 -35 6 c-19 4 -38 2 -41 -2 -4 -5 -21 1 -38 14 -22 16 -29 28 -25 41
4 13 0 18 -13 18 -15 0 -15 2 -3 9 8 6 18 7 24 4 5 -3 24 -7 43 -9z m-817 -66
c-32 -26 -36 -15 -9 24 21 28 24 30 28 13 2 -11 -6 -27 -19 -37z m731 30 c1
-7 1 -16 0 -20 0 -4 5 -5 12 -3 6 3 30 -11 52 -30 22 -19 44 -35 50 -35 28 -1
-25 -20 -55 -20 -19 0 -30 -4 -24 -8 5 -4 18 -18 27 -32 9 -13 17 -19 17 -13
0 7 -4 15 -10 18 -17 10 -11 25 9 25 10 0 26 -12 36 -26 14 -22 15 -28 4 -35
-8 -5 -19 -9 -25 -9 -19 0 -196 -121 -222 -152 -33 -39 -66 -35 -70 9 -3 27 4
39 36 70 48 47 103 140 127 216 16 53 33 74 36 45z m-695 -188 c-5 -93 -24
-175 -33 -138 -2 9 -13 20 -23 23 -23 7 -27 20 -35 111 l-6 71 43 37 c42 36
42 36 51 14 4 -12 6 -65 3 -118z m-126 88 c0 -7 -4 -19 -9 -26 -6 -11 -9 -9
-14 7 -2 11 -2 22 1 25 10 10 22 6 22 -6z m969 -38 c3 -25 3 -25 -18 -6 -26
23 -27 39 -3 34 9 -2 19 -14 21 -28z m-1008 -18 c-6 -2 -11 -10 -11 -18 0 -8
-7 -14 -15 -14 -8 0 -15 5 -15 11 0 5 5 7 10 4 6 -3 11 -1 11 4 3 21 4 26 14
41 8 13 10 12 13 -5 3 -10 -1 -21 -7 -23z m1132 -32 c-3 -11 -9 -20 -14 -20
-5 0 -6 -6 -3 -14 3 -8 1 -17 -5 -20 -15 -10 -10 37 7 57 19 22 21 22 15 -3z
m-1073 -43 c0 -10 -4 -15 -10 -12 -5 3 -10 18 -10 33 0 21 2 24 10 12 5 -8 10
-23 10 -33z m575 19 c-11 -8 -24 -12 -28 -9 -11 7 12 23 32 23 11 0 9 -4 -4
-14z m415 -6 c0 -5 -4 -10 -10 -10 -5 0 -10 5 -10 10 0 6 5 10 10 10 6 0 10
-4 10 -10z m-1033 -47 c-3 -10 -5 -2 -5 17 0 19 2 27 5 18 2 -10 2 -26 0 -35z
m519 39 c6 -4 14 -23 17 -42 5 -28 1 -41 -18 -65 l-24 -29 0 72 c0 71 3 79 25
64z m-476 -42 c0 -5 -2 -10 -4 -10 -3 0 -8 5 -11 10 -3 6 -1 10 4 10 6 0 11
-4 11 -10z m879 7 c-2 -1 -12 -9 -22 -16 -15 -12 -17 -12 -11 3 3 9 13 16 22
16 8 0 13 -1 11 -3z m-2002 -23 c-3 -3 -12 -4 -19 -1 -8 3 -5 6 6 6 11 1 17
-2 13 -5z m1958 -14 c3 -5 -1 -10 -10 -10 -9 0 -13 5 -10 10 3 6 8 10 10 10 2
0 7 -4 10 -10z m183 -18 c2 -7 -1 -12 -8 -12 -6 0 -8 5 -4 11 4 8 -1 9 -17 4
-19 -5 -21 -4 -9 4 18 12 32 10 38 -7z m-1404 -22 c54 -35 52 -50 -6 -50 -35
0 -40 3 -35 19 3 12 -1 22 -9 25 -15 6 -20 36 -6 36 4 0 29 -14 56 -30z m1185
4 c-6 -8 -18 -14 -25 -14 -8 0 -14 -4 -14 -9 0 -5 16 -8 37 -6 22 2 42 -2 50
-11 19 -18 33 -18 33 1 0 8 5 15 12 15 6 0 8 -3 5 -7 -4 -3 -2 -12 5 -20 8
-11 7 -12 -6 -7 -12 5 -15 2 -10 -10 7 -18 -20 -23 -31 -6 -3 6 -10 10 -15 10
-14 0 -50 -42 -44 -51 4 -8 -27 -29 -43 -29 -4 0 -16 14 -25 30 -9 17 -13 30
-8 30 6 0 10 4 10 9 0 5 -11 4 -25 -2 -14 -7 -25 -15 -25 -19 0 -5 -12 -8 -27
-8 l-26 0 35 33 c64 57 68 60 68 41 0 -19 10 -13 14 8 4 27 18 39 38 32 15 -4
18 -3 13 6 -5 9 -4 11 4 6 9 -6 9 -11 0 -22z m71 6 c0 -13 -28 -25 -38 -16 -3
4 0 11 8 16 20 13 30 12 30 0z m-903 -22 c-3 -8 -6 -5 -6 6 -1 11 2 17 5 13 3
-3 4 -12 1 -19z m978 2 c-3 -5 -10 -10 -16 -10 -5 0 -9 5 -9 10 0 6 7 10 16
10 8 0 12 -4 9 -10z m37 -12 c-7 -7 -12 -8 -12 -2 0 14 12 26 19 19 2 -3 -1
-11 -7 -17z m78 -44 c0 -13 -5 -24 -11 -24 -5 0 -7 -4 -4 -10 3 -5 1 -10 -5
-10 -6 0 -13 14 -17 31 -4 20 -10 28 -19 25 -8 -3 -14 -1 -14 4 0 11 29 17 53
12 10 -3 17 -14 17 -28z m-2230 -39 c0 -8 -3 -14 -7 -14 -5 1 -10 0 -13 -1
-19 -7 -50 -5 -50 4 0 8 -3 8 -8 1 -4 -6 -14 -10 -22 -9 -8 0 -25 2 -37 2 -13
1 -23 8 -23 16 0 11 18 15 80 15 64 0 80 -2 80 -14z m400 0 c0 -8 -1 -15 -2
-15 -78 -12 -78 -12 -78 9 0 18 6 21 40 21 29 0 40 -4 40 -15z m100 1 c0 -10
-13 -14 -45 -14 -32 0 -45 4 -45 14 0 10 13 14 45 14 32 0 45 -4 45 -14z m834
-28 c-5 -8 -44 -11 -44 -4 0 2 3 11 6 20 5 12 9 13 24 4 10 -7 16 -16 14 -20z
m531 2 c3 -5 1 -10 -4 -10 -6 0 -11 5 -11 10 0 6 2 10 4 10 3 0 8 -4 11 -10z
m-935 -90 c0 -5 -25 -10 -55 -10 -30 0 -55 5 -55 10 0 6 25 10 55 10 30 0 55
-4 55 -10z m70 6 c0 -11 -19 -15 -25 -6 -3 5 1 10 9 10 9 0 16 -2 16 -4z
m1410 -86 c0 -5 -5 -10 -11 -10 -5 0 -7 5 -4 10 3 6 8 10 11 10 2 0 4 -4 4
-10z m-3175 -60 c14 -6 4 -9 -38 -9 -36 -1 -56 3 -52 9 7 12 62 12 90 0z
m3825 -150 c0 -13 -7 -20 -20 -20 -13 0 -20 7 -20 20 0 13 7 20 20 20 13 0 20
-7 20 -20z m-2242 -7 c-10 -2 -28 -2 -40 0 -13 2 -5 4 17 4 22 1 32 -1 23 -4z
m2712 -33 c10 -19 10 -20 -9 -8 -11 6 -17 16 -15 20 8 12 12 10 24 -12z m-510
0 c0 -5 -5 -10 -11 -10 -5 0 -7 5 -4 10 3 6 8 10 11 10 2 0 4 -4 4 -10z m-168
-35 c3 -14 1 -25 -3 -25 -5 0 -9 11 -9 25 0 14 2 25 4 25 2 0 6 -11 8 -25z
m-96 -22 c-10 -10 -19 5 -10 18 6 11 8 11 12 0 2 -7 1 -15 -2 -18z m21 -30
c-3 -10 -5 -2 -5 17 0 19 2 27 5 18 2 -10 2 -26 0 -35z m-57 -5 c0 -5 -4 -8
-10 -8 -5 0 -10 10 -10 23 0 18 2 19 10 7 5 -8 10 -18 10 -22z m-340 -104 c0
-2 -19 -4 -42 -3 -35 1 -38 2 -18 8 23 7 60 4 60 -5z m-130 -95 c-7 -11 -14
-19 -16 -16 -7 7 7 37 17 37 6 0 5 -9 -1 -21z m-60 -77 c0 -11 -35 -52 -44
-52 -4 0 3 13 16 29 25 33 28 35 28 23z m-360 -505 c0 -5 -4 -5 -10 -2 -5 3
-10 14 -10 23 0 15 2 15 10 2 5 -8 10 -19 10 -23z"/>
<path d="M2285 3160 c3 -5 11 -10 16 -10 6 0 7 5 4 10 -3 6 -11 10 -16 10 -6
0 -7 -4 -4 -10z"/>
<path d="M1695 3129 c-4 -6 -5 -12 -2 -15 2 -3 7 2 10 11 7 17 1 20 -8 4z"/>
<path d="M2622 3040 c0 -14 2 -19 5 -12 2 6 2 18 0 25 -3 6 -5 1 -5 -13z"/>
<path d="M2520 3046 c0 -2 8 -10 18 -17 15 -13 16 -12 3 4 -13 16 -21 21 -21
13z"/>
<path d="M2600 3018 c0 -2 9 -11 20 -21 11 -9 20 -13 20 -7 0 5 -9 14 -20 20
-11 6 -20 9 -20 8z"/>
<path d="M2672 2984 c-7 -8 -8 -14 -2 -14 5 0 10 -8 10 -17 0 -13 3 -14 11 -6
6 6 19 9 28 7 9 -3 6 1 -6 7 -12 6 -23 17 -25 24 -2 10 -6 10 -16 -1z"/>
<path d="M2410 2910 c-13 -8 -13 -10 2 -10 9 0 20 5 23 10 8 13 -5 13 -25 0z"/>
<path d="M1725 2970 c-3 -5 -2 -10 4 -10 5 0 13 5 16 10 3 6 2 10 -4 10 -5 0
-13 -4 -16 -10z"/>
<path d="M1821 2571 c-8 -6 -9 -11 -3 -15 6 -3 14 -1 17 5 9 14 2 20 -14 10z"/>
<path d="M1998 2675 c-10 -13 -18 -30 -18 -37 0 -7 10 2 21 19 12 18 26 30 32
26 6 -3 7 -1 3 5 -10 17 -19 14 -38 -13z"/>
<path d="M1966 2605 c-9 -26 -7 -32 5 -12 6 10 9 21 6 23 -2 3 -7 -2 -11 -11z"/>
<path d="M1990 2515 c0 -14 4 -25 9 -25 4 0 6 11 3 25 -2 14 -6 25 -8 25 -2 0
-4 -11 -4 -25z"/>
<path d="M1916 2484 c-4 -14 -5 -28 -3 -31 3 -2 8 8 11 23 4 14 5 28 3 31 -3
2 -8 -8 -11 -23z"/>
<path d="M2581 2894 c0 -11 3 -14 6 -6 3 7 2 16 -1 19 -3 4 -6 -2 -5 -13z"/>
<path d="M2477 2807 c-3 -8 -1 -20 4 -28 6 -10 9 -7 9 14 0 29 -5 35 -13 14z"/>
<path d="M2654 2775 c-3 -8 -14 -17 -25 -20 -11 -4 -17 -10 -14 -15 9 -15 55
12 55 32 0 22 -8 24 -16 3z"/>
<path d="M2520 2755 c13 -14 26 -25 28 -25 3 0 -5 11 -18 25 -13 14 -26 25
-28 25 -3 0 5 -11 18 -25z"/>
<path d="M2475 2739 c5 -15 4 -19 -4 -15 -6 4 -11 0 -11 -8 0 -9 8 -16 18 -16
12 0 17 9 18 30 1 20 -4 30 -13 30 -10 0 -12 -6 -8 -21z"/>
<path d="M2640 2715 c0 -5 5 -17 10 -25 5 -8 10 -10 10 -5 0 6 -5 17 -10 25
-5 8 -10 11 -10 5z"/>
<path d="M2528 2703 c-10 -2 -18 -9 -18 -15 0 -6 -12 -7 -31 -3 -22 5 -29 4
-25 -4 4 -6 14 -11 22 -11 8 0 14 -8 15 -17 0 -13 2 -14 6 -4 3 8 18 25 32 37
14 13 24 23 21 23 -3 -1 -13 -3 -22 -6z"/>
<path d="M2457 2638 c-8 -29 -4 -32 11 -8 6 10 8 21 3 24 -5 3 -11 -4 -14 -16z"/>
<path d="M2364 2613 c3 -4 17 -8 29 -10 17 -2 19 -1 7 7 -17 11 -47 14 -36 3z"/>
<path d="M2321 2751 c-10 -6 -9 -10 3 -14 8 -3 18 -2 21 3 8 13 -9 20 -24 11z"/>
<path d="M1055 2660 c3 -5 8 -10 11 -10 2 0 4 5 4 10 0 6 -5 10 -11 10 -5 0
-7 -4 -4 -10z"/>
<path d="M2475 2530 c-3 -6 1 -7 9 -4 18 7 21 14 7 14 -6 0 -13 -4 -16 -10z"/>
<path d="M2330 2456 c0 -2 7 -7 16 -10 8 -3 12 -2 9 4 -6 10 -25 14 -25 6z"/>
<path d="M2270 2315 c0 -5 5 -17 10 -25 5 -8 10 -10 10 -5 0 6 -5 17 -10 25
-5 8 -10 11 -10 5z"/>
<path d="M2281 2243 c-1 -13 -6 -23 -12 -23 -5 0 -7 5 -4 10 3 6 -3 10 -15 10
-12 0 -18 -4 -15 -10 3 -5 0 -11 -7 -11 -7 -1 -24 -3 -37 -4 -29 -3 -43 -24
-30 -47 8 -15 14 -16 29 -8 11 6 20 15 20 21 0 6 5 7 10 4 6 -3 10 -2 10 4 0
5 -6 11 -12 14 -7 3 1 5 18 4 44 0 63 13 53 38 -7 19 -8 19 -8 -2z m-77 -56
c-3 -8 -11 -14 -19 -14 -11 0 -12 4 -4 14 6 7 15 13 20 13 5 0 6 -6 3 -13z"/>
<path d="M815 2550 c-16 -7 -17 -9 -3 -9 9 -1 20 4 23 9 7 11 7 11 -20 0z"/>
<path d="M1305 2500 c-8 -13 5 -13 25 0 13 8 13 10 -2 10 -9 0 -20 -4 -23 -10z"/>
<path d="M3027 2447 c-3 -8 -2 -20 3 -26 5 -9 8 -4 8 13 0 29 -3 32 -11 13z"/>
<path d="M1360 2312 c0 -12 19 -26 26 -19 2 2 -2 10 -11 17 -9 8 -15 8 -15 2z"/>
<path d="M3195 2340 c-3 -6 1 -7 9 -4 18 7 21 14 7 14 -6 0 -13 -4 -16 -10z"/>
<path d="M3888 2145 c-3 -3 -25 -10 -49 -15 l-44 -9 44 3 c24 3 48 9 54 15 6
6 9 11 6 11 -3 0 -8 -2 -11 -5z"/>
<path d="M1925 2090 c-3 -5 1 -10 10 -10 9 0 13 5 10 10 -3 6 -8 10 -10 10 -2
0 -7 -4 -10 -10z"/>
<path d="M3321 2104 c0 -11 3 -14 6 -6 3 7 2 16 -1 19 -3 4 -6 -2 -5 -13z"/>
<path d="M3357 2021 c-4 -17 -3 -21 5 -13 5 5 8 16 6 23 -3 8 -7 3 -11 -10z"/>
<path d="M3180 1840 c0 -5 -17 -11 -37 -11 -37 -1 -37 -2 -8 -8 38 -9 62 -3
62 15 0 8 -4 14 -9 14 -4 0 -8 -4 -8 -10z"/>
<path d="M4158 2163 c7 -3 16 -2 19 1 4 3 -2 6 -13 5 -11 0 -14 -3 -6 -6z"/>
<path d="M2301 2110 c-13 -11 -19 -20 -13 -20 5 0 20 9 33 20 13 10 20 19 14
19 -5 0 -21 -9 -34 -19z"/>
<path d="M3020 2091 c0 -6 4 -13 10 -16 6 -3 7 1 4 9 -7 18 -14 21 -14 7z"/>
<path d="M884 2081 c7 -11 46 -35 46 -28 0 3 -12 12 -26 22 -15 9 -23 12 -20
6z"/>
<path d="M3900 2040 c0 -5 -8 -10 -17 -11 -15 0 -15 -2 2 -8 26 -11 45 -3 38
15 -6 16 -23 19 -23 4z"/>
<path d="M1357 2029 c46 -29 132 -59 172 -59 45 0 36 8 -25 20 -27 6 -60 13
-74 16 -14 2 -37 14 -52 24 -15 11 -33 20 -40 20 -7 0 1 -10 19 -21z"/>
<path d="M1270 2010 c0 -5 7 -7 15 -4 8 4 15 8 15 10 0 2 -7 4 -15 4 -8 0 -15
-4 -15 -10z"/>
<path d="M1623 1939 c1 -4 -7 -15 -18 -24 -16 -13 -14 -13 13 1 34 20 41 31
18 31 -8 0 -14 -4 -13 -8z"/>
<path d="M1260 1850 c20 -13 33 -13 25 0 -3 6 -14 10 -23 10 -15 0 -15 -2 -2
-10z"/>
<path d="M1317 1709 c7 -7 15 -10 18 -7 3 3 -2 9 -12 12 -14 6 -15 5 -6 -5z"/>
<path d="M1362 1684 c10 -10 20 -15 24 -12 3 4 -5 12 -18 18 -22 12 -22 12 -6
-6z"/>
<path d="M1555 1540 c-3 -6 1 -7 9 -4 18 7 21 14 7 14 -6 0 -13 -4 -16 -10z"/>
<path d="M1650 1500 c8 -5 20 -10 25 -10 6 0 3 5 -5 10 -8 5 -19 10 -25 10 -5
0 -3 -5 5 -10z"/>
<path d="M2511 1727 c-13 -21 -12 -21 5 -5 10 10 16 20 13 22 -3 3 -11 -5 -18
-17z"/>
<path d="M2410 1577 c0 -2 15 -14 33 -27 20 -15 27 -17 18 -6 -13 16 -51 41
-51 33z"/>
<path d="M2040 1839 c0 -3 9 -23 19 -45 11 -21 18 -41 16 -44 -2 -3 3 -11 11
-18 12 -11 14 -9 14 8 0 11 -4 20 -9 20 -5 0 -13 10 -17 23 -7 22 -34 67 -34
56z"/>
<path d="M1625 1680 c-3 -5 -2 -10 4 -10 5 0 13 5 16 10 3 6 2 10 -4 10 -5 0
-13 -4 -16 -10z"/>
<path d="M1772 1635 c4 -4 3 -14 -2 -20 -8 -9 -6 -14 4 -18 9 -4 19 0 23 7 5
7 15 16 23 19 10 5 9 6 -5 4 -11 -1 -27 2 -35 7 -8 5 -12 6 -8 1z"/>
<path d="M1797 1583 c-4 -3 3 -18 15 -31 l23 -24 -24 7 c-21 6 -22 5 -10 -7 7
-8 21 -13 29 -11 10 3 21 -5 27 -19 7 -13 12 -17 12 -9 1 11 4 10 14 -4 11
-14 16 -15 22 -5 5 9 4 11 -3 6 -7 -4 -12 -2 -12 4 0 8 9 10 25 6 32 -8 32 6
0 21 -17 7 -23 8 -18 0 4 -7 0 -8 -11 -4 -10 4 -22 7 -26 7 -5 0 -20 16 -33
35 -13 19 -27 32 -30 28z"/>
<path d="M3168 1702 c-12 -5 -14 -12 -9 -21 7 -11 11 -9 20 8 7 11 10 21 9 20
-2 0 -11 -3 -20 -7z"/>
<path d="M2958 1663 c6 -2 18 -2 25 0 6 3 1 5 -13 5 -14 0 -19 -2 -12 -5z"/>
<path d="M2952 1393 c-6 -2 -10 -9 -6 -14 3 -5 -1 -9 -9 -9 -22 0 -37 -23 -27
-40 8 -12 10 -9 10 10 0 20 2 22 10 10 6 -10 10 -11 10 -2 0 6 7 12 16 12 8 0
12 5 9 10 -3 6 -1 10 4 10 6 0 11 5 11 10 0 11 -7 12 -28 3z"/>
<path d="M1990 3428 c0 -9 5 -20 10 -23 13 -8 13 5 0 25 -8 13 -10 13 -10 -2z"/>
<path d="M1736 3417 c3 -10 9 -15 12 -12 3 3 0 11 -7 18 -10 9 -11 8 -5 -6z"/>
<path d="M2141 3414 c0 -11 3 -14 6 -6 3 7 2 16 -1 19 -3 4 -6 -2 -5 -13z"/>
<path d="M2471 3424 c-1 -5 5 -19 13 -29 13 -18 14 -18 25 6 11 21 10 22 -2 7
-13 -17 -15 -16 -25 5 -6 12 -11 17 -11 11z"/>
<path d="M2275 3400 c-3 -5 -1 -10 4 -10 6 0 11 5 11 10 0 6 -2 10 -4 10 -3 0
-8 -4 -11 -10z"/>
<path d="M3237 3398 c-3 -7 -12 -30 -21 -50 -9 -21 -14 -38 -12 -38 7 0 47 92
42 97 -2 2 -6 -2 -9 -9z"/>
<path d="M2444 3387 c3 -10 -3 -26 -15 -38 -11 -11 -17 -25 -13 -31 4 -7 3 -8
-5 -4 -6 4 -9 12 -6 17 4 5 1 9 -4 9 -13 0 -15 -37 -2 -44 9 -6 28 14 49 52 9
17 10 27 2 40 -11 16 -11 16 -6 -1z"/>
<path d="M1530 3382 c0 -4 9 -13 20 -20 11 -7 20 -9 20 -4 0 4 -9 13 -20 20
-11 7 -20 9 -20 4z"/>
<path d="M1759 3320 c1 -28 4 -50 6 -48 10 10 11 69 2 83 -10 12 -11 5 -8 -35z"/>
<path d="M1707 3331 c-4 -17 -3 -21 5 -13 5 5 8 16 6 23 -3 8 -7 3 -11 -10z"/>
<path d="M2508 3343 c6 -3 10 -8 7 -13 -3 -4 1 -10 8 -13 7 -3 13 3 14 12 1
11 -6 17 -20 18 -12 0 -16 -1 -9 -4z"/>
<path d="M2931 3335 c0 -5 6 -19 14 -29 8 -11 15 -15 15 -10 0 6 -7 19 -15 30
-8 10 -14 15 -14 9z"/>
<path d="M1841 3323 c0 -4 4 -17 8 -27 6 -15 9 -16 13 -5 3 8 -1 20 -8 27 -8
7 -14 9 -13 5z"/>
<path d="M2860 3295 c-5 -14 -13 -38 -16 -53 l-6 -27 15 26 c16 29 30 79 22
79 -3 0 -10 -11 -15 -25z"/>
<path d="M2557 3303 c-4 -3 -2 -12 4 -20 9 -10 8 -18 -6 -33 -17 -19 -17 -20
-1 -20 9 0 15 4 12 9 -3 5 0 11 8 14 14 6 34 -12 54 -48 9 -16 11 -17 12 -4 0
9 -7 22 -15 29 -8 7 -12 17 -8 23 3 6 1 7 -5 3 -11 -6 -38 31 -34 47 2 9 -12
9 -21 0z"/>
<path d="M2710 3300 c-9 -6 -10 -10 -3 -10 6 0 15 5 18 10 8 12 4 12 -15 0z"/>
<path d="M2285 3289 c-4 -6 -5 -12 -2 -15 2 -3 7 2 10 11 7 17 1 20 -8 4z"/>
<path d="M1610 3272 c6 -13 14 -21 18 -18 3 4 -2 14 -12 24 -18 16 -18 16 -6
-6z"/>
<path d="M2180 3269 c7 -11 14 -19 16 -16 7 7 -7 37 -17 37 -6 0 -5 -9 1 -21z"/>
<path d="M3211 3244 c0 -11 3 -14 6 -6 3 7 2 16 -1 19 -3 4 -6 -2 -5 -13z"/>
<path d="M2467 3236 c-3 -8 6 -11 30 -8 39 5 39 9 1 16 -15 2 -28 -1 -31 -8z"/>
<path d="M2971 3245 c0 -5 6 -19 14 -29 8 -11 13 -29 10 -40 -3 -12 -2 -15 1
-7 5 11 10 8 21 -10 l14 -24 -6 28 c-3 16 -10 34 -16 40 -5 7 -16 21 -24 32
-8 11 -14 16 -14 10z"/>
<path d="M2185 3220 c3 -5 8 -10 11 -10 2 0 4 5 4 10 0 6 -5 10 -11 10 -5 0
-7 -4 -4 -10z"/>
<path d="M3184 3210 c0 -13 4 -16 10 -10 7 7 7 13 0 20 -6 6 -10 3 -10 -10z"/>
<path d="M2392 3176 c1 -19 5 -33 8 -31 7 4 1 65 -6 65 -3 0 -4 -15 -2 -34z"/>
<path d="M3305 3180 c-3 -6 1 -7 9 -4 18 7 21 14 7 14 -6 0 -13 -4 -16 -10z"/>
<path d="M955 3129 c-11 -17 -2 -18 19 -3 17 12 17 14 4 14 -9 0 -20 -5 -23
-11z"/>
<path d="M3440 3125 c-14 -8 -20 -14 -14 -15 5 0 19 7 30 15 24 18 16 19 -16
0z"/>
<path d="M731 3114 c0 -11 3 -14 6 -6 3 7 2 16 -1 19 -3 4 -6 -2 -5 -13z"/>
<path d="M2846 3114 c-18 -17 -20 -24 -8 -24 4 0 13 9 20 20 15 24 9 26 -12 4z"/>
<path d="M750 3106 c0 -2 7 -7 16 -10 8 -3 12 -2 9 4 -6 10 -25 14 -25 6z"/>
<path d="M830 3066 c0 -3 15 -15 33 -27 l32 -22 -27 27 c-25 24 -38 32 -38 22z"/>
<path d="M666 3045 c4 -8 8 -15 10 -15 2 0 4 7 4 15 0 8 -4 15 -10 15 -5 0 -7
-7 -4 -15z"/>
<path d="M2841 3044 c0 -11 3 -14 6 -6 3 7 2 16 -1 19 -3 4 -6 -2 -5 -13z"/>
<path d="M3297 3026 c-21 -19 -34 -37 -28 -40 9 -6 16 0 50 40 10 12 16 13 19
6 7 -21 20 -13 15 8 -7 26 -11 25 -56 -14z"/>
<path d="M2897 3033 c-4 -3 -7 -13 -7 -20 0 -12 3 -12 15 1 8 8 15 17 15 20 0
8 -15 7 -23 -1z"/>
<path d="M3110 2950 c-8 -5 -10 -10 -5 -10 6 0 17 5 25 10 8 5 11 10 5 10 -5
0 -17 -5 -25 -10z"/>
<path d="M3288 2949 c-10 -5 -23 -19 -29 -31 -9 -16 -8 -19 2 -13 9 6 10 3 5
-10 -7 -18 -6 -18 14 0 25 22 25 26 3 18 -14 -5 -12 0 6 20 26 29 26 32 -1 16z"/>
<path d="M490 2931 l-55 -7 56 -4 c64 -6 89 -3 89 11 0 9 -2 9 -90 0z"/>
<path d="M608 2933 c7 -3 16 -2 19 1 4 3 -2 6 -13 5 -11 0 -14 -3 -6 -6z"/>
<path d="M3695 2909 c-4 -6 -5 -12 -2 -15 2 -3 7 2 10 11 7 17 1 20 -8 4z"/>
<path d="M3231 2894 c0 -11 3 -14 6 -6 3 7 2 16 -1 19 -3 4 -6 -2 -5 -13z"/>
<path d="M3525 2900 c-3 -5 -2 -10 4 -10 5 0 13 5 16 10 3 6 2 10 -4 10 -5 0
-13 -4 -16 -10z"/>
<path d="M3995 2890 c-3 -11 -18 -29 -32 -40 -14 -11 -24 -23 -21 -25 7 -7 68
62 68 75 0 17 -8 11 -15 -10z"/>
<path d="M570 2896 c0 -2 7 -7 16 -10 8 -3 12 -2 9 4 -6 10 -25 14 -25 6z"/>
<path d="M3615 2880 c-3 -6 1 -7 9 -4 18 7 21 14 7 14 -6 0 -13 -4 -16 -10z"/>
<path d="M3570 2870 c-9 -6 -10 -10 -3 -10 6 0 15 5 18 10 8 12 4 12 -15 0z"/>
<path d="M3314 2854 c-18 -14 -18 -15 4 -4 12 6 22 13 22 15 0 8 -5 6 -26 -11z"/>
<path d="M3674 2812 c-11 -10 -25 -17 -32 -14 -6 2 -19 -4 -28 -12 -8 -9 -11
-16 -5 -16 5 0 13 5 16 10 3 6 11 10 17 10 7 0 6 -6 -2 -15 -7 -8 -18 -15 -25
-15 -6 0 -12 -7 -12 -15 0 -11 7 -9 27 10 14 14 29 23 33 20 4 -3 5 -2 2 2 -3
3 5 17 17 30 26 27 20 31 -8 5z"/>
<path d="M3916 2804 c-3 -11 -21 -35 -39 -54 -17 -18 -25 -29 -16 -24 27 15
71 73 66 86 -2 8 -7 5 -11 -8z"/>
<path d="M131 2801 c-8 -5 -9 -11 -3 -15 5 -3 12 1 16 9 6 17 6 18 -13 6z"/>
<path d="M3474 2768 c-3 -4 -16 -8 -28 -8 -13 0 -30 -8 -37 -17 -13 -16 -12
-17 3 -4 10 7 27 11 38 8 11 -3 23 -1 26 4 3 5 17 9 31 9 15 0 23 3 19 7 -10
10 -46 11 -52 1z"/>
<path d="M4135 2770 c-3 -6 1 -7 9 -4 18 7 21 14 7 14 -6 0 -13 -4 -16 -10z"/>
<path d="M110 2752 c6 -13 14 -21 18 -18 3 4 -2 14 -12 24 -18 16 -18 16 -6
-6z"/>
<path d="M3520 2734 c-14 -7 -19 -14 -11 -14 9 0 11 -7 8 -21 -5 -17 -3 -18 9
-8 8 6 12 14 9 17 -3 3 2 14 12 24 19 21 9 22 -27 2z"/>
<path d="M3465 2720 c-3 -5 1 -10 10 -10 9 0 13 5 10 10 -3 6 -8 10 -10 10 -2
0 -7 -4 -10 -10z"/>
<path d="M1210 2690 c20 -13 33 -13 25 0 -3 6 -14 10 -23 10 -15 0 -15 -2 -2
-10z"/>
<path d="M24 2678 c3 -10 1 -18 -4 -18 -6 0 -10 5 -10 12 0 6 -2 9 -6 6 -7 -8
68 -116 85 -123 11 -4 12 -3 1 10 -15 17 -5 50 11 39 8 -4 9 -3 5 4 -9 15 -12
15 -30 -3 -14 -14 -17 -13 -30 13 -8 16 -13 32 -10 35 3 3 1 14 -6 24 -10 16
-11 16 -6 1z"/>
<path d="M4376 2643 c-6 -14 -5 -15 5 -6 7 7 10 15 7 18 -3 3 -9 -2 -12 -12z"/>
<path d="M260 2630 c13 -9 13 -10 0 -10 -13 0 -13 -2 0 -9 8 -6 18 -7 23 -4
10 6 -11 33 -27 33 -6 0 -4 -5 4 -10z"/>
<path d="M4400 2620 c-8 -5 -10 -10 -5 -10 6 0 17 5 25 10 8 5 11 10 5 10 -5
0 -17 -5 -25 -10z"/>
<path d="M4350 2610 c-8 -5 -10 -10 -5 -10 6 0 17 5 25 10 8 5 11 10 5 10 -5
0 -17 -5 -25 -10z"/>
<path d="M3800 2597 c-27 -12 -56 -37 -44 -37 9 0 74 40 74 46 0 5 0 5 -30 -9z"/>
<path d="M4315 2600 c-3 -5 -1 -10 4 -10 6 0 11 5 11 10 0 6 -2 10 -4 10 -3 0
-8 -4 -11 -10z"/>
<path d="M101 2573 c6 -7 15 -13 20 -13 5 0 6 6 3 13 -3 8 -11 14 -19 14 -11
0 -12 -4 -4 -14z"/>
<path d="M3770 2545 c-11 -13 -10 -14 5 -9 13 5 16 4 10 -5 -6 -10 -3 -11 14
-2 25 14 28 23 4 14 -11 -4 -14 -3 -9 5 11 17 -9 15 -24 -3z"/>
<path d="M3780 2500 c-9 -6 -10 -10 -3 -10 6 0 15 5 18 10 8 12 4 12 -15 0z"/>
<path d="M4497 2483 c-4 -3 -7 -11 -7 -17 0 -6 5 -5 12 2 6 6 9 14 7 17 -3 3
-9 2 -12 -2z"/>
<path d="M4380 2460 c-8 -5 -12 -12 -9 -15 4 -3 12 1 19 10 14 17 11 19 -10 5z"/>
<path d="M4125 2450 c-3 -5 -3 -10 2 -11 4 0 -1 -4 -12 -9 -18 -8 -17 -9 7 -9
21 -1 25 3 21 19 -6 23 -9 24 -18 10z"/>
<path d="M4190 2439 c-22 -18 -22 -19 -3 -10 12 6 25 16 28 21 9 15 3 12 -25
-11z"/>
<path d="M4277 2436 c-4 -10 -1 -13 8 -9 8 3 12 9 9 14 -7 12 -11 11 -17 -5z"/>
<path d="M4534 2408 l-19 -23 23 19 c21 18 27 26 19 26 -2 0 -12 -10 -23 -22z"/>
<path d="M4350 2410 c0 -5 7 -7 15 -4 8 4 15 8 15 10 0 2 -7 4 -15 4 -8 0 -15
-4 -15 -10z"/>
<path d="M4308 2396 c-26 -19 -22 -26 7 -13 14 7 25 15 25 20 0 11 -13 8 -32
-7z"/>
<path d="M4085 2390 c-3 -6 -16 -8 -28 -6 -12 1 -16 1 -9 -1 7 -3 10 -9 7 -14
-4 -5 -2 -9 4 -9 5 0 13 5 16 10 3 6 19 10 36 10 16 0 29 5 29 10 0 13 -47 13
-55 0z"/>
<path d="M4490 2380 c0 -17 -36 -61 -44 -53 -3 3 -6 0 -6 -7 0 -20 -47 -59
-59 -49 -6 5 -9 6 -6 2 3 -3 -7 -14 -21 -24 -16 -10 -22 -19 -15 -23 15 -9
107 58 156 114 22 25 36 42 31 38 -5 -4 -15 -3 -23 3 -10 9 -13 8 -13 -1z"/>
<path d="M4545 2349 c-4 -6 -5 -12 -2 -15 2 -3 7 2 10 11 7 17 1 20 -8 4z"/>
<path d="M4050 2340 c0 -5 -9 -10 -20 -10 -11 0 -20 -4 -20 -8 0 -5 13 -7 28
-4 25 3 43 32 20 32 -4 0 -8 -4 -8 -10z"/>
<path d="M3928 2293 c7 -3 16 -2 19 1 4 3 -2 6 -13 5 -11 0 -14 -3 -6 -6z"/>
<path d="M4440 2267 c-8 -7 -22 -21 -30 -31 -14 -18 -14 -19 7 -7 13 6 27 20
33 31 12 23 11 24 -10 7z"/>
<path d="M4150 2219 c0 -5 5 -7 10 -4 6 3 10 8 10 11 0 2 -4 4 -10 4 -5 0 -10
-5 -10 -11z"/>
<path d="M4301 2034 c0 -11 3 -14 6 -6 3 7 2 16 -1 19 -3 4 -6 -2 -5 -13z"/>
<path d="M4290 1999 c0 -5 5 -7 10 -4 6 3 10 8 10 11 0 2 -4 4 -10 4 -5 0 -10
-5 -10 -11z"/>
<path d="M4050 1984 c-24 -13 -24 -14 -4 -14 12 0 24 7 28 15 3 8 4 15 3 14
-1 -1 -13 -7 -27 -15z"/>
<path d="M4585 1940 c-3 -5 -1 -10 4 -10 6 0 11 5 11 10 0 6 -2 10 -4 10 -3 0
-8 -4 -11 -10z"/>
<path d="M4468 1903 c6 -2 18 -2 25 0 6 3 1 5 -13 5 -14 0 -19 -2 -12 -5z"/>
<path d="M3778 1853 c7 -3 16 -2 19 1 4 3 -2 6 -13 5 -11 0 -14 -3 -6 -6z"/>
<path d="M3708 1843 c12 -2 30 -2 40 0 9 3 -1 5 -23 4 -22 0 -30 -2 -17 -4z"/>
<path d="M3518 1833 c7 -3 16 -2 19 1 4 3 -2 6 -13 5 -11 0 -14 -3 -6 -6z"/>
<path d="M3550 1801 c0 -6 4 -13 10 -16 6 -3 7 1 4 9 -7 18 -14 21 -14 7z"/>
<path d="M317 1773 c-4 -3 -7 -11 -7 -17 0 -6 5 -5 12 2 6 6 9 14 7 17 -3 3
-9 2 -12 -2z"/>
<path d="M3495 1700 c-28 -7 -27 -8 13 -9 23 0 42 4 42 9 0 11 -11 11 -55 0z"/>
<path d="M3600 1655 c7 -9 15 -13 17 -11 7 7 -7 26 -19 26 -6 0 -6 -6 2 -15z"/>
<path d="M3693 1604 c16 -8 38 -13 50 -11 19 4 18 4 -5 6 -15 0 -30 6 -33 11
-3 6 -14 10 -23 10 -11 -1 -8 -6 11 -16z"/>
<path d="M3418 1473 c7 -3 16 -2 19 1 4 3 -2 6 -13 5 -11 0 -14 -3 -6 -6z"/>
<path d="M3270 1460 c0 -5 6 -10 13 -10 8 0 7 -4 -3 -10 -13 -8 -13 -10 2 -10
23 0 34 20 17 31 -19 12 -29 11 -29 -1z"/>
<path d="M3440 1440 c0 -5 5 -10 11 -10 5 0 7 5 4 10 -3 6 -8 10 -11 10 -2 0
-4 -4 -4 -10z"/>
<path d="M3848 1433 c7 -3 16 -2 19 1 4 3 -2 6 -13 5 -11 0 -14 -3 -6 -6z"/>
<path d="M3397 1389 c4 -13 8 -18 11 -10 2 7 -1 18 -6 23 -8 8 -9 4 -5 -13z"/>
<path d="M3798 1271 c-15 -18 -15 -19 3 -24 23 -6 29 2 20 26 -6 16 -7 16 -23
-2z"/>
<path d="M4010 1241 c0 -16 -6 -32 -12 -34 -8 -3 -6 -6 5 -6 13 -1 17 7 17 34
0 19 -2 35 -5 35 -3 0 -5 -13 -5 -29z"/>
<path d="M3741 1175 c-5 -72 -4 -125 3 -132 3 -3 6 15 6 40 0 31 4 47 13 47 9
0 9 2 0 8 -6 4 -13 23 -16 42 l-4 35 -2 -40z"/>
<path d="M4003 1110 c0 -30 2 -43 4 -27 2 15 2 39 0 55 -2 15 -4 2 -4 -28z"/>
<path d="M332 1100 c0 -14 2 -19 5 -12 2 6 2 18 0 25 -3 6 -5 1 -5 -13z"/>
<path d="M3670 1100 c0 -5 5 -10 10 -10 6 0 10 5 10 10 0 6 -4 10 -10 10 -5 0
-10 -4 -10 -10z"/>
<path d="M3561 1074 c0 -11 3 -14 6 -6 3 7 2 16 -1 19 -3 4 -6 -2 -5 -13z"/>
<path d="M3600 1050 c0 -5 5 -10 11 -10 5 0 7 5 4 10 -3 6 -8 10 -11 10 -2 0
-4 -4 -4 -10z"/>
<path d="M3672 1040 c0 -14 2 -19 5 -12 2 6 2 18 0 25 -3 6 -5 1 -5 -13z"/>
<path d="M3641 994 c0 -11 3 -14 6 -6 3 7 2 16 -1 19 -3 4 -6 -2 -5 -13z"/>
<path d="M3673 970 c0 -25 2 -35 4 -22 2 12 2 32 0 45 -2 12 -4 2 -4 -23z"/>
<path d="M3651 954 c0 -11 3 -14 6 -6 3 7 2 16 -1 19 -3 4 -6 -2 -5 -13z"/>
</g>
</svg>
